<svg width="105" height="33" viewBox="0 0 105 33" fill="none" xmlns="http://www.w3.org/2000/svg">
<path d="M25.5549 8.15368C25.4275 8.26442 25.2995 8.37624 25.1786 8.49666L25.5388 8.13647L25.5549 8.15368Z" fill="#A7A7A7"/>
<path d="M57.804 22.789H50.5649L49.6053 24.8995C49.5378 25.0482 49.4289 25.1743 49.2916 25.2628C49.1544 25.3513 48.9945 25.3984 48.8312 25.3984H47.8716C47.7295 25.3986 47.5896 25.3632 47.4647 25.2954C47.3398 25.2276 47.2339 25.1296 47.1566 25.0103C47.0793 24.891 47.0332 24.7542 47.0224 24.6125C47.0116 24.4708 47.0365 24.3287 47.0948 24.1991L52.5384 12.0647C52.6045 11.914 52.713 11.7858 52.8506 11.6955C52.9882 11.6052 53.149 11.5568 53.3136 11.5562H55.057C55.2212 11.5561 55.382 11.6035 55.5198 11.6928C55.6577 11.7821 55.7667 11.9094 55.8338 12.0593L61.2773 24.1937C61.3356 24.3233 61.3605 24.4654 61.3497 24.6072C61.3389 24.7489 61.2928 24.8856 61.2156 25.0049C61.1383 25.1242 61.0324 25.2222 60.9075 25.29C60.7826 25.3578 60.6427 25.3932 60.5005 25.393H59.5194C59.3552 25.3931 59.1944 25.3457 59.0566 25.2564C58.9187 25.1671 58.8097 25.0398 58.7426 24.8898L57.804 22.789ZM54.1866 14.4682L51.6164 20.358H56.7541L54.1866 14.4682Z" fill="#A7A7A7"/>
<path d="M75.591 18.3604C75.6507 21.8589 73.5159 25.3968 68.6734 25.3968H64.0889C63.8633 25.3968 63.647 25.3072 63.4875 25.1477C63.328 24.9882 63.2384 24.7719 63.2384 24.5463V12.4066C63.2384 12.2949 63.2604 12.1843 63.3031 12.0812C63.3459 11.978 63.4085 11.8842 63.4875 11.8052C63.5665 11.7263 63.6602 11.6636 63.7634 11.6209C63.8666 11.5781 63.9772 11.5562 64.0889 11.5562H68.6734C73.4175 11.5562 75.5313 14.9429 75.591 18.3604ZM65.8269 22.8868H68.6734C71.8161 22.8868 73.0676 20.5946 73.0009 18.341C72.9412 16.1864 71.6769 14.0317 68.6734 14.0317H65.8285L65.8269 22.8868Z" fill="#A7A7A7"/>
<path d="M91.1062 18.5584C91.0664 22.136 88.872 25.7126 84.0101 25.7126C79.1482 25.7126 76.8957 22.214 76.8957 18.5783C76.8957 14.9426 79.2277 11.2849 84.0101 11.2849C88.7924 11.2849 91.146 14.9421 91.1062 18.5584ZM79.4654 18.6181C79.525 20.8862 80.7496 23.3214 84.0112 23.3214C87.2727 23.3214 88.4978 20.8706 88.5371 18.5982C88.5768 16.2662 87.2727 13.6567 84.0112 13.6567C80.7496 13.6567 79.4057 16.2861 79.4654 18.6181Z" fill="#A7A7A7"/>
<path d="M104.573 23.0108C104.658 23.0965 104.724 23.1995 104.767 23.3128C104.809 23.4261 104.827 23.5472 104.819 23.6679C104.811 23.7887 104.777 23.9063 104.72 24.013C104.663 24.1197 104.584 24.2129 104.488 24.2865C103.173 25.2469 101.579 25.7494 99.9515 25.717C94.8128 25.717 92.6404 22.1733 92.6184 18.5827C92.5963 14.9922 94.9504 11.2893 99.9515 11.2893C101.525 11.2846 103.056 11.8048 104.301 12.7677C104.395 12.8429 104.473 12.9373 104.528 13.0448C104.583 13.1523 104.615 13.2704 104.621 13.3911C104.627 13.5118 104.607 13.6324 104.563 13.7449C104.519 13.8574 104.451 13.9591 104.365 14.0434L103.839 14.5525C103.695 14.6907 103.508 14.7742 103.309 14.7884C103.111 14.8027 102.913 14.7468 102.752 14.6304C101.928 14.0666 100.95 13.7697 99.9521 13.78C96.6126 13.78 95.1676 16.2706 95.1891 18.5827C95.2106 20.8949 96.533 23.2597 99.9521 23.2597C101.002 23.2486 102.024 22.9199 102.884 22.3168C103.048 22.1999 103.249 22.1454 103.45 22.1628C103.651 22.1802 103.839 22.2685 103.981 22.412L104.573 23.0108Z" fill="#A7A7A7"/>
<path d="M81.177 5.77632C80.2168 5.77632 79.4385 6.5547 79.4385 7.51487C79.4385 8.47504 80.2168 9.25342 81.177 9.25342H86.8276C87.7877 9.25342 88.5661 8.47504 88.5661 7.51487C88.5661 6.5547 87.7877 5.77632 86.8276 5.77632H81.177Z" fill="#A7A7A7"/>
<path d="M25.5549 8.15368C25.4275 8.26442 25.2995 8.37624 25.1786 8.49666L25.5388 8.13647L25.5549 8.15368Z" fill="#A7A7A7"/>
<path d="M25.5549 8.15368C25.4275 8.26442 25.2995 8.37624 25.1786 8.49666L25.5388 8.13647L25.5549 8.15368Z" fill="#A7A7A7"/>
<path d="M25.5549 8.15368C25.4275 8.26442 25.2995 8.37624 25.1786 8.49666L25.5388 8.13647L25.5549 8.15368Z" fill="#A7A7A7"/>
<path d="M42.1034 11.9553C42.1075 13.5266 41.8 15.0831 41.1987 16.5347C40.5975 17.9864 39.7143 19.3044 38.6005 20.4126L33.8375 25.181C34.4721 23.215 34.6477 21.1297 34.3509 19.0853C34.2971 18.7267 34.2321 18.3682 34.1509 18.015L35.1755 16.9887C36.4743 15.6921 37.2215 13.9436 37.2608 12.1088C37.3001 10.274 36.6284 8.49506 35.3864 7.14404C34.1443 5.79302 32.428 4.97455 30.5963 4.85982C28.7647 4.74508 26.9597 5.34297 25.5587 6.52842L25.5415 6.51122L25.1813 6.8714L19.9775 12.0655L16.0268 16.0162C15.0634 16.9795 14.397 18.1992 14.1066 19.5302C13.8162 20.8613 13.9142 22.2477 14.3889 23.5247C14.8635 24.8017 15.6949 25.9155 16.7842 26.7337C17.8734 27.552 19.1747 28.0402 20.5334 28.1404C18.8205 28.0262 17.2079 27.292 15.9972 26.075L9.21832 19.296C9.59055 16.7549 10.7757 14.4026 12.5965 12.5913L16.6139 8.57393L21.687 3.49914C23.3601 1.82755 25.4912 0.689544 27.811 0.228976C30.1307 -0.231592 32.5349 0.00596112 34.7197 0.911603C36.9044 1.81725 38.7716 3.35031 40.0852 5.317C41.3988 7.28368 42.0998 9.59568 42.0996 11.9607L42.1034 11.9553Z" fill="#A7A7A7"/>
<path d="M29.4889 29.5015C27.3234 31.6783 24.3992 32.9321 21.3295 33.0001H20.7607C17.6818 32.9386 14.7469 31.6843 12.5744 29.5015L3.48928 20.412C1.28897 18.2046 0.0373082 15.2255 0.0008206 12.1089C-0.035667 8.99241 1.1459 5.98477 3.29393 3.72644C5.44195 1.46812 8.3867 0.137557 11.5011 0.0180771C14.6156 -0.101403 17.6536 0.999644 19.9683 3.08676L16.5321 6.523C15.1308 5.34035 13.3269 4.74474 11.4969 4.86056C9.6669 4.97637 7.9524 5.79464 6.71139 7.1445C5.47038 8.49437 4.7988 10.2715 4.8369 12.1047C4.87499 13.938 5.61982 15.6856 6.91583 16.9828L7.93348 18.0042L9.22368 19.2944L16.0026 26.0733C17.2133 27.2903 18.8259 28.0246 20.5387 28.1387V28.1387C20.6522 28.1457 20.7656 28.1527 20.879 28.1543H21.2048C21.3209 28.1543 21.436 28.1473 21.5494 28.1387C22.9072 28.0378 24.2075 27.5494 25.2959 26.7314C26.3843 25.9134 27.2151 24.8003 27.6896 23.5241C28.1641 22.2479 28.2624 20.8624 27.9728 19.532C27.6832 18.2017 27.018 16.9824 26.0559 16.0189L22.1052 12.0698L25.5356 8.64054L29.4836 12.5896C30.8709 13.9758 31.8935 15.6837 32.4602 17.5612C33.0883 19.6354 33.1432 21.8409 32.6192 23.9438C32.0951 26.0466 31.0116 27.9684 29.4836 29.5053L29.4889 29.5015Z" fill="#A7A7A7"/>
</svg>
