<svg width="467" height="147" viewBox="0 0 467 147" fill="none" xmlns="http://www.w3.org/2000/svg">
<path d="M113.641 36.258C113.074 36.7505 112.505 37.2477 111.967 37.7832L113.569 36.1815L113.641 36.258Z" fill="#0067E2"/>
<path d="M257.05 101.339H224.858L220.591 110.725C220.29 111.386 219.806 111.947 219.196 112.34C218.585 112.734 217.874 112.943 217.148 112.943H212.881C212.249 112.944 211.627 112.787 211.071 112.485C210.516 112.184 210.045 111.748 209.701 111.217C209.358 110.687 209.153 110.079 209.105 109.449C209.057 108.818 209.167 108.186 209.427 107.61L233.634 53.6496C233.928 52.9795 234.41 52.4092 235.022 52.0078C235.634 51.6064 236.349 51.3911 237.081 51.3881H244.834C245.564 51.3876 246.279 51.5987 246.892 51.9958C247.505 52.3929 247.99 52.959 248.288 53.6257L272.495 107.586C272.754 108.162 272.865 108.795 272.817 109.425C272.769 110.055 272.564 110.663 272.22 111.193C271.877 111.724 271.406 112.16 270.85 112.461C270.295 112.763 269.673 112.92 269.041 112.919H264.678C263.947 112.92 263.233 112.709 262.62 112.312C262.007 111.915 261.522 111.348 261.224 110.682L257.05 101.339ZM240.963 64.3379L229.534 90.5292H252.381L240.963 64.3379Z" fill="#2A2D37"/>
<path d="M336.147 81.6457C336.412 97.2037 326.919 112.936 305.385 112.936H284.998C283.995 112.936 283.033 112.538 282.324 111.828C281.614 111.119 281.216 110.157 281.216 109.154V55.17C281.216 54.6733 281.314 54.1815 281.504 53.7227C281.694 53.2639 281.972 52.847 282.324 52.4958C282.675 52.1446 283.092 51.866 283.551 51.6759C284.009 51.4859 284.501 51.3881 284.998 51.3881H305.385C326.482 51.3881 335.882 66.4488 336.147 81.6457ZM292.727 101.774H305.385C319.36 101.774 324.926 91.581 324.629 81.5597C324.364 71.9782 318.741 62.3967 305.385 62.3967H292.734L292.727 101.774Z" fill="#2A2D37"/>
<path d="M405.142 82.5278C404.965 98.4371 395.206 114.342 373.586 114.342C351.965 114.342 341.949 98.7838 341.949 82.6162C341.949 66.4487 352.319 50.1831 373.586 50.1831C394.853 50.1831 405.319 66.4463 405.142 82.5278ZM353.376 82.7931C353.641 92.879 359.087 103.708 373.591 103.708C388.094 103.708 393.543 92.8097 393.717 82.7047C393.894 72.3343 388.094 60.7304 373.591 60.7304C359.087 60.7304 353.111 72.4228 353.376 82.7931Z" fill="#2A2D37"/>
<path d="M465.026 102.327C465.406 102.708 465.7 103.165 465.889 103.669C466.078 104.173 466.157 104.712 466.122 105.249C466.086 105.786 465.936 106.309 465.682 106.783C465.428 107.257 465.075 107.672 464.648 107.999C458.801 112.27 451.715 114.505 444.476 114.361C421.625 114.361 411.964 98.602 411.866 82.6353C411.768 66.6685 422.237 50.2022 444.476 50.2022C451.475 50.1811 458.28 52.4945 463.816 56.7763C464.237 57.1106 464.582 57.5307 464.828 58.0087C465.073 58.4867 465.214 59.0116 465.241 59.5484C465.268 60.0852 465.18 60.6215 464.984 61.1217C464.787 61.6219 464.486 62.0745 464.101 62.4492L461.763 64.7131C461.125 65.3277 460.292 65.699 459.409 65.7623C458.525 65.8257 457.648 65.577 456.929 65.0597C453.265 62.5525 448.918 61.2322 444.479 61.2778C429.628 61.2778 423.202 72.3534 423.298 82.6353C423.394 92.9172 429.275 103.433 444.479 103.433C449.148 103.384 453.692 101.922 457.515 99.2403C458.246 98.7206 459.138 98.4779 460.032 98.5554C460.926 98.6329 461.763 99.0256 462.394 99.6634L465.026 102.327Z" fill="#2A2D37"/>
<path d="M360.988 25.6868C356.718 25.6868 353.256 29.1482 353.256 33.418C353.256 37.6878 356.718 41.1492 360.988 41.1492H386.115C390.385 41.1492 393.846 37.6878 393.846 33.418C393.846 29.1482 390.385 25.6868 386.115 25.6868H360.988Z" fill="#0067E2"/>
<path d="M113.641 36.258C113.074 36.7505 112.505 37.2477 111.967 37.7832L113.569 36.1815L113.641 36.258Z" fill="#0067E2"/>
<path d="M113.641 36.258C113.074 36.7505 112.505 37.2477 111.967 37.7832L113.569 36.1815L113.641 36.258Z" fill="#0067E2"/>
<path d="M113.641 36.258C113.074 36.7505 112.505 37.2477 111.967 37.7832L113.569 36.1815L113.641 36.258Z" fill="#0067E2"/>
<path d="M187.23 53.1643C187.248 60.1515 185.881 67.073 183.207 73.5284C180.534 79.9838 176.606 85.845 171.653 90.773L150.472 111.978C153.294 103.235 154.075 93.962 152.755 84.8707C152.516 83.2761 152.227 81.6816 151.866 80.111L156.423 75.5474C162.198 69.7815 165.521 62.0059 165.695 53.8467C165.87 45.6875 162.884 37.7768 157.36 31.7689C151.837 25.761 144.204 22.1214 136.059 21.6112C127.914 21.101 119.887 23.7597 113.657 29.0313L113.581 28.9548L111.979 30.5565L88.8382 53.6544L71.2698 71.2228C66.9858 75.5064 64.022 80.9302 62.7308 86.8492C61.4396 92.7682 61.8753 98.9335 63.986 104.612C66.0968 110.291 69.7938 115.244 74.6377 118.882C79.4815 122.521 85.2683 124.692 91.3101 125.138C83.6932 124.63 76.5222 121.365 71.1383 115.953L40.993 85.8078C42.6483 74.5075 47.9187 64.0471 56.0155 55.9924L73.8803 38.1275L96.4403 15.5603C103.88 8.12696 113.357 3.06634 123.673 1.01823C133.989 -1.02987 144.68 0.0265086 154.395 4.05382C164.111 8.08112 172.414 14.8985 178.256 23.6442C184.097 32.3899 187.214 42.6711 187.213 53.1882L187.23 53.1643Z" fill="#0067E2"/>
<path d="M131.135 131.191C121.505 140.87 108.501 146.446 94.8506 146.749H92.3213C78.6293 146.475 65.5781 140.897 55.9175 131.191L15.5165 90.7705C5.73195 80.9544 0.165906 67.7063 0.00364914 53.8474C-0.158608 39.9886 5.09574 26.6138 14.6478 16.5713C24.1999 6.52874 37.295 0.611829 51.1446 0.0805136C64.9943 -0.450801 78.5042 4.44545 88.7976 13.7267L73.517 29.0073C67.2856 23.7482 59.2634 21.0996 51.1257 21.6146C42.9879 22.1296 35.3637 25.7684 29.845 31.7711C24.3263 37.7738 21.3399 45.6764 21.5093 53.8287C21.6787 61.981 24.9909 69.7527 30.7541 75.521L35.2795 80.0631L41.0169 85.8005L71.1622 115.946C76.5461 121.358 83.7171 124.623 91.334 125.13V125.13C91.8384 125.162 92.3428 125.193 92.8472 125.2H94.2959C94.8123 125.2 95.3239 125.169 95.8283 125.13C101.866 124.682 107.649 122.51 112.489 118.872C117.329 115.235 121.023 110.285 123.133 104.61C125.243 98.9347 125.681 92.7734 124.393 86.8573C123.105 80.9413 120.147 75.5191 115.869 71.2346L98.3002 53.6734L113.555 38.4238L131.111 55.9851C137.28 62.149 141.828 69.7443 144.348 78.0932C147.141 87.3169 147.385 97.1246 145.055 106.476C142.724 115.827 137.906 124.373 131.111 131.207L131.135 131.191Z" fill="#0067E2"/>
</svg>
