<svg width="194" height="41" viewBox="0 0 194 41" fill="none" xmlns="http://www.w3.org/2000/svg">
<path d="M51.0056 31.8091V31.8212L24.7775 31.8138C24.7775 23.3144 33.0244 16.7139 42.0276 19.4465C47.4356 21.0882 51.0056 26.2039 51.0056 31.8091Z" fill="#A7A7A7"/>
<path d="M54.0511 8.95122V8.96536C54.0368 9.10475 54.0232 9.25088 53.9947 9.39027L51.8217 25.7008C49.4584 20.4101 44.1129 16.716 37.8949 16.716C29.4761 16.716 22.6534 23.4773 22.6534 31.8138H5.1607C2.29802 31.8138 0.131821 29.2556 0.631243 26.4678L1.55263 21.2956C1.93993 19.1139 3.84589 17.5247 6.08208 17.5247H17.1529C21.4079 17.5247 25.052 14.4999 25.7899 10.3519C26.4354 6.70416 29.6317 4.04364 33.3689 4.04364H49.4652C52.173 4.04364 54.2617 6.33717 54.0511 8.95055V8.95122Z" fill="#A7A7A7"/>
<path d="M51.0056 31.8138V31.8212L24.7775 31.8138C24.7775 24.6409 30.6502 18.8209 37.8949 18.8209C45.1396 18.8209 51.0056 24.6409 51.0056 31.8138Z" fill="#A7A7A7"/>
<path d="M51.0056 31.8138V31.8212L24.7775 31.8138C24.7775 24.6409 30.6502 18.8209 37.8949 18.8209C45.1396 18.8209 51.0056 24.6409 51.0056 31.8138Z" fill="#A7A7A7"/>
<path d="M51.0056 31.8138H24.7775C24.7775 24.6409 30.6502 18.8209 37.8949 18.8209C45.1396 18.8209 51.0056 24.6409 51.0056 31.8138Z" fill="#A7A7A7"/>
<path d="M19.1296 31.8138C19.0657 31.8212 18.9957 31.8212 18.9325 31.8212H1.69328C0.638038 31.8212 -0.156961 30.8798 0.0265001 29.8556L0.631243 26.4678C0.13182 29.2563 2.29802 31.8138 5.1607 31.8138H19.1296Z" fill="#A7A7A7"/>
<path d="M66.2475 31.5592H57.8878L61.3742 6.97481H69.7339C76.8495 6.97481 82.3764 11.5989 81.2886 19.2673C80.2007 26.9358 73.363 31.5592 66.2475 31.5592ZM68.4565 11.8682H66.5125L64.4088 26.7034H66.3528C70.6302 26.7034 74.5182 24.2375 75.2174 19.305C75.9166 14.3725 72.7338 11.8682 68.4565 11.8682Z" fill="#A7A7A7"/>
<path d="M81.7391 26.5115C82.2147 23.1588 85.0652 21.1555 88.5305 20.8471L92.1569 20.5003L92.2609 19.7683C92.4247 18.6121 91.6786 17.8418 89.7346 17.8418C88.0236 17.8418 86.0028 18.3812 84.6106 19.1522L84.2178 15.0675C85.8269 14.1429 88.5584 13.5261 91.0467 13.5261C95.4796 13.5261 98.0895 15.6843 97.4997 19.8458L96.8603 24.354C96.5981 26.2038 97.1906 27.7836 98.3708 28.7855L98.3165 29.1707L94.0289 31.9834C93.2285 31.5982 92.5212 30.8272 92.1739 29.7101C90.9943 31.1747 89.1135 32.0992 86.7802 32.0992C83.2808 32.0992 81.2974 29.6333 81.7397 26.5122L81.7391 26.5115ZM88.4252 28.1681C89.8637 28.1681 91.2335 27.0119 91.4625 25.3937L91.648 24.0833L89.3602 24.3143C87.7498 24.4301 86.963 25.3163 86.8155 26.3567C86.6789 27.3203 87.2585 28.1681 88.4252 28.1681Z" fill="#A7A7A7"/>
<path d="M111.702 31.5592L111.958 29.4785H111.919C110.657 31.2508 108.753 32.0602 106.498 32.0602C101.677 32.0602 98.6963 28.3997 99.4777 22.8894C100.275 17.2634 104.566 13.6029 109.427 13.6029C111.371 13.6029 112.778 14.3732 113.48 15.1826L115.048 4.12373H120.57L116.679 31.5599H111.702V31.5592ZM112.686 20.2303C112.161 18.9973 111.015 18.3037 109.693 18.3037C107.671 18.3037 105.476 20.0761 105.088 22.812C104.705 25.5096 106.398 27.2819 108.42 27.2819C109.742 27.2819 111.09 26.5499 111.954 25.3937L112.686 20.2303Z" fill="#A7A7A7"/>
<path d="M130.214 30.7114C127.068 36.7227 123.714 39.5354 120.522 40.6532L117.515 37.1853C120.311 36.1065 122.784 34.0258 124.742 30.3646L120.71 14.1032H126.232L127.836 20.8848C128.049 21.8484 128.302 23.0814 128.399 24.3143H128.477C128.996 23.1197 129.56 21.8868 130.085 20.9232L133.618 14.1025H138.868L130.213 30.7107L130.214 30.7114Z" fill="#A7A7A7"/>
<path d="M152.196 19.6525C151.172 18.9205 149.983 18.5354 148.583 18.5354C146.095 18.5354 143.854 20.3468 143.505 22.8127C143.139 25.3944 144.86 27.2442 147.659 27.2442C149.059 27.2442 150.192 26.9358 151.445 26.3196L150.263 31.0979C149.097 31.6373 147.537 31.9457 146.02 31.9457C140.693 31.9457 136.791 28.4778 137.589 22.8517C138.398 17.1489 143.506 13.7578 148.328 13.7578C150.661 13.7578 152.467 14.1813 153.897 15.0681L152.197 19.6539L152.196 19.6525Z" fill="#A7A7A7"/>
<path d="M152.74 26.5115C153.216 23.1588 156.066 21.1555 159.531 20.8471L163.158 20.5003L163.262 19.7683C163.425 18.6121 162.679 17.8418 160.735 17.8418C159.024 17.8418 157.004 18.3812 155.611 19.1522L155.219 15.0675C156.828 14.1429 159.559 13.5261 162.047 13.5261C166.48 13.5261 169.09 15.6843 168.501 19.8458L167.861 24.354C167.599 26.2038 168.191 27.7836 169.371 28.7855L169.317 29.1707L165.029 31.9834C164.229 31.5982 163.521 30.8272 163.174 29.7101C161.994 31.1747 160.114 32.0992 157.78 32.0992C154.281 32.0992 152.298 29.6333 152.74 26.5122V26.5115ZM159.426 28.1681C160.865 28.1681 162.234 27.0119 162.463 25.3937L162.649 24.0833L160.361 24.3143C158.75 24.4301 157.964 25.3163 157.816 26.3567C157.68 27.3203 158.259 28.1681 159.426 28.1681Z" fill="#A7A7A7"/>
<path d="M182.382 20.1144C182.098 19.9219 181.353 19.6909 180.77 19.6909C178.942 19.6909 177.129 20.6929 176.735 23.4672L175.588 31.5592H169.872L172.347 14.1032H177.986L177.434 17.9953H177.473C178.438 15.2978 180.707 13.8338 183.04 13.8338C183.584 13.8338 184.273 13.9106 184.685 14.0264L182.382 20.1144H182.382Z" fill="#A7A7A7"/>
</svg>
