<svg width="467" height="100" viewBox="0 0 467 100" fill="none" xmlns="http://www.w3.org/2000/svg">
<path d="M122.553 77.3314V77.3609L59.5336 77.3429C59.5336 56.6799 79.3487 40.6335 100.981 47.2767C113.975 51.2678 122.553 63.7045 122.553 77.3314Z" fill="#0F82EA"/>
<path d="M129.87 21.7614V21.7958C129.836 22.1347 129.803 22.4899 129.735 22.8288L124.514 62.4817C118.835 49.6193 105.991 40.6384 91.0513 40.6384C70.8232 40.6384 54.43 57.0761 54.43 77.3429H12.3998C5.52153 77.3429 0.316734 71.1237 1.51671 64.3463L3.73055 51.772C4.66114 46.4679 9.24065 42.6045 14.6136 42.6045H41.2139C51.4374 42.6045 60.1931 35.2508 61.9662 25.1665C63.5172 16.2986 71.197 9.83057 80.1764 9.83057H118.852C125.358 9.83057 130.376 15.4064 129.87 21.7598V21.7614Z" fill="#0F82EA"/>
<path d="M122.553 77.3429V77.3609L59.5336 77.3429C59.5336 59.9049 73.6443 45.7558 91.0514 45.7558C108.458 45.7558 122.553 59.9049 122.553 77.3429Z" fill="#0F82EA"/>
<path d="M122.553 77.3429V77.3609L59.5336 77.3429C59.5336 59.9049 73.6443 45.7558 91.0514 45.7558C108.458 45.7558 122.553 59.9049 122.553 77.3429Z" fill="#0F82EA"/>
<path d="M122.553 77.3429H59.5336C59.5336 59.9049 73.6443 45.7558 91.0514 45.7558C108.458 45.7558 122.553 59.9049 122.553 77.3429Z" fill="#0F82EA"/>
<path d="M45.9632 77.3429C45.8098 77.3609 45.6416 77.3609 45.4898 77.3609H4.0685C1.53304 77.3609 -0.377128 75.0723 0.0636802 72.5823L1.51671 64.3463C0.316737 71.1253 5.52154 77.3429 12.3998 77.3429H45.9632Z" fill="#0F82EA"/>
<path d="M159.175 76.724H139.089L147.466 16.9566H167.552C184.649 16.9566 197.928 28.1983 195.315 46.8411C192.701 65.4839 176.272 76.724 159.175 76.724ZM164.483 28.8531H159.812L154.757 64.9191H159.428C169.705 64.9191 179.047 58.9242 180.727 46.9328C182.407 34.9413 174.76 28.8531 164.483 28.8531Z" fill="#0F82EA"/>
<path d="M196.397 64.4526C197.54 56.3017 204.389 51.4314 212.715 50.6816L221.428 49.8386L221.678 48.0591C222.072 45.2483 220.279 43.3755 215.608 43.3755C211.497 43.3755 206.642 44.6867 203.297 46.5612L202.353 36.6308C206.219 34.3831 212.782 32.8835 218.761 32.8835C229.412 32.8835 235.683 38.1303 234.266 48.2473L232.729 59.2075C232.099 63.7045 233.523 67.545 236.359 69.9809L236.228 70.9173L225.926 77.7553C224.003 76.8189 222.304 74.9445 221.469 72.2286C218.635 75.7892 214.116 78.0369 208.51 78.0369C200.102 78.0369 195.336 72.042 196.399 64.4542L196.397 64.4526ZM212.462 68.4798C215.918 68.4798 219.21 65.6689 219.76 61.7351L220.206 58.5494L214.709 59.1109C210.839 59.3924 208.949 61.5468 208.594 64.0761C208.266 66.4187 209.659 68.4798 212.462 68.4798Z" fill="#0F82EA"/>
<path d="M268.389 76.724L269.005 71.6655H268.912C265.878 75.9742 261.305 77.9419 255.887 77.9419C244.301 77.9419 237.141 69.0429 239.018 55.6468C240.935 41.9692 251.245 33.0701 262.923 33.0701C267.594 33.0701 270.975 34.9429 272.662 36.9107L276.43 10.0253H289.697L280.348 76.7256H268.389V76.724ZM270.755 49.1821C269.493 46.1846 266.74 44.4985 263.563 44.4985C258.704 44.4985 253.429 48.8072 252.497 55.4586C251.578 62.0166 255.645 66.3254 260.504 66.3254C263.681 66.3254 266.92 64.5459 268.995 61.7351L270.755 49.1821Z" fill="#0F82EA"/>
<path d="M312.87 74.6629C305.309 89.2769 297.251 96.1149 289.582 98.8324L282.356 90.4016C289.076 87.779 295.017 82.7205 299.722 73.8198L290.035 34.2865H303.301L307.156 50.7733C307.668 53.1159 308.276 56.1134 308.509 59.1108H308.695C309.943 56.2067 311.298 53.2093 312.56 50.8666L321.049 34.2849H333.661L312.867 74.6613L312.87 74.6629Z" fill="#0F82EA"/>
<path d="M365.687 47.7775C363.227 45.998 360.368 45.0616 357.005 45.0616C351.026 45.0616 345.643 49.4653 344.804 55.4602C343.924 61.7367 348.06 66.2337 354.786 66.2337C358.149 66.2337 360.871 65.4839 363.883 63.986L361.041 75.6026C358.241 76.9138 354.492 77.6636 350.848 77.6636C338.048 77.6636 328.672 69.2328 330.59 55.5551C332.533 41.6909 344.807 33.4467 356.392 33.4467C361.997 33.4467 366.338 34.4764 369.773 36.6324L365.689 47.7807L365.687 47.7775Z" fill="#0F82EA"/>
<path d="M366.993 64.4526C368.136 56.3017 374.985 51.4314 383.311 50.6816L392.024 49.8386L392.274 48.0591C392.668 45.2483 390.875 43.3755 386.204 43.3755C382.093 43.3755 377.238 44.6867 373.893 46.5612L372.949 36.6308C376.815 34.3831 383.378 32.8835 389.357 32.8835C400.008 32.8835 406.279 38.1303 404.862 48.2473L403.325 59.2075C402.695 63.7045 404.119 67.545 406.953 69.9809L406.823 70.9173L396.521 77.7553C394.597 76.8189 392.898 74.9445 392.064 72.2286C389.229 75.7892 384.71 78.0369 379.104 78.0369C370.696 78.0369 365.93 72.042 366.993 64.4542V64.4526ZM383.058 68.4798C386.514 68.4798 389.806 65.6689 390.356 61.7351L390.802 58.5494L385.305 59.1109C381.434 59.3924 379.545 61.5468 379.19 64.0761C378.862 66.4187 380.255 68.4798 383.058 68.4798Z" fill="#0F82EA"/>
<path d="M438.215 48.9005C437.532 48.4323 435.743 47.8708 434.342 47.8708C429.95 47.8708 425.593 50.3067 424.647 57.0514L421.89 76.724H408.156L414.104 34.2865H427.651L426.326 43.7487H426.419C428.739 37.1906 434.19 33.6317 439.795 33.6317C441.103 33.6317 442.758 33.8183 443.748 34.0999L438.216 48.9005H438.215Z" fill="#0F82EA"/>
</svg>
