<svg width="467" height="93" viewBox="0 0 467 93" fill="none" xmlns="http://www.w3.org/2000/svg">
<g clip-path="url(#clip0_2026_29383)">
<path d="M3.19 57.16C5.52135 61.2737 8.37503 65.0685 11.68 68.45C27.73 84 55.37 82.31 69.29 64.79C73.88 59 73.8 53 68.75 47.58C63.9957 42.4328 60.8651 35.9977 59.75 29.08C59.2596 27.0658 59.3323 24.9557 59.96 22.98C60.28 22.12 60.62 21.4 61.67 21.33C62.1124 21.3104 62.5488 21.4383 62.9108 21.6934C63.2728 21.9486 63.5398 22.3167 63.67 22.74C64.28 24.06 64.76 25.45 65.27 26.82C65.96 28.66 66.58 30.54 67.32 32.36C67.92 33.84 68.67 35.28 70.68 34.82C72.52 34.4 73.31 33.08 73.53 31.28C73.9004 28.4527 73.6129 25.578 72.69 22.88C69.89 14.95 65.69 8.13 57.53 4.61C57.0563 4.40037 56.6231 4.1093 56.25 3.75C55.37 2.94 54.18 2.01 54.77 0.750003C55.36 -0.509997 56.77 0.200003 57.77 0.430003C67.1 2.55 74 8.22 78.63 16.34C86.19 29.65 88.84 44.1 85.78 59.16C82.51 75.25 72.39 85.63 56.83 90.38C51.1398 92.1291 45.1434 92.6524 39.2362 91.9155C33.329 91.1786 27.645 89.1981 22.5589 86.1047C17.4728 83.0112 13.0999 78.875 9.72862 73.9686C6.35731 69.0623 4.06406 63.4971 3 57.64C3 57.57 3 57.49 3.19 57.16Z" fill="#235EE8"/>
<path d="M12 28.48C5.32 28.67 1.2 25.48 1 20.05C0.929834 18.8879 1.09416 17.7236 1.4832 16.6263C1.87224 15.529 2.47805 14.5212 3.26457 13.6628C4.05109 12.8045 5.00225 12.1131 6.06144 11.6299C7.12063 11.1466 8.26621 10.8814 9.43 10.85C15.26 10.69 18.43 14.39 18.73 21.85C29.6633 14.9767 40.5967 14.9467 51.53 21.76C44 20 36.69 20.25 29.84 24.33C26.5374 26.1962 23.6791 28.7569 21.4623 31.8352C19.2455 34.9135 17.723 38.4361 17 42.16C14.54 53.96 20.47 69.16 37.81 73.78C30.5 75.56 19.13 71.2 13.69 64.28C4.67 52.81 4.41 40.81 12 28.48Z" fill="#0B3C64"/>
<path d="M71.87 28C69.11 22.52 66 17.45 60.8 14C59.7131 13.3191 58.5765 12.7207 57.4 12.21C56.1982 11.7108 55.2105 10.8045 54.61 9.65C54.08 8.57 54.18 7.34 55.75 7.65C59.08 8.28 62.47 8.65 64.87 11.76C68.65 16.57 71.54 21.69 71.87 28Z" fill="#0972DD"/>
<path d="M118.702 72.25H111.946V24.666H144.55V30.423H118.702V45.4032H143.022V51.1603H118.702V72.25ZM166.674 72.9585C163.014 72.9585 159.806 72.2106 157.051 70.7149C154.335 69.1798 152.229 67.0347 150.733 64.2794C149.237 61.5241 148.489 58.2768 148.489 54.5375C148.489 50.7982 149.237 47.5509 150.733 44.7956C152.229 42.0403 154.335 39.9148 157.051 38.4191C159.806 36.884 163.014 36.1165 166.674 36.1165C170.453 36.1165 173.681 36.8644 176.357 38.3601C179.073 39.8558 181.159 41.9813 182.616 44.7366C184.111 47.4919 184.859 50.7588 184.859 54.5375C184.859 58.2768 184.111 61.5438 182.616 64.3384C181.159 67.0937 179.073 69.2192 176.357 70.7149C173.641 72.2106 170.414 72.9585 166.674 72.9585ZM166.674 67.1724C170.335 67.1724 173.169 66.0703 175.176 63.8661C177.223 61.6225 178.246 58.513 178.246 54.5375C178.246 50.5227 177.223 47.4131 175.176 45.2089C173.169 43.0047 170.335 41.9026 166.674 41.9026C163.053 41.9026 160.219 43.0244 158.172 45.268C156.126 47.4722 155.102 50.562 155.102 54.5375C155.102 58.513 156.126 61.6225 158.172 63.8661C160.219 66.0703 163.053 67.1724 166.674 67.1724ZM208.249 72.9585C204.667 72.9585 201.538 72.2106 198.861 70.7149C196.185 69.1798 194.099 67.0347 192.603 64.2794C191.146 61.5241 190.418 58.2768 190.418 54.5375C190.418 50.7982 191.146 47.5509 192.603 44.7956C194.059 42.0403 196.126 39.9148 198.802 38.4191C201.479 36.884 204.628 36.1165 208.249 36.1165C212.579 36.1165 216.18 37.1989 219.053 39.3638C221.966 41.4893 223.875 44.5595 224.781 48.5743H218.109C217.44 46.2913 216.279 44.6185 214.625 43.5558C213.012 42.4536 210.886 41.9026 208.249 41.9026C204.746 41.9026 201.99 43.0047 199.983 45.2089C198.015 47.4131 197.031 50.5227 197.031 54.5375C197.031 58.513 198.015 61.6225 199.983 63.8661C201.99 66.0703 204.746 67.1724 208.249 67.1724C213.72 67.1724 217.085 64.7517 218.345 59.9103H225.017C224.151 64.1219 222.261 67.3495 219.349 69.5931C216.436 71.8367 212.736 72.9585 208.249 72.9585ZM245.232 72.8995C240.666 72.8995 237.084 71.6399 234.486 69.1208C231.889 66.5623 230.59 63.1379 230.59 58.8475V36.825H237.202V57.4305C237.202 60.6188 238.029 63.0395 239.682 64.6927C241.335 66.3065 243.736 67.1134 246.885 67.1134C250.231 67.1134 252.809 66.2671 254.62 64.5746C256.47 62.8427 257.395 60.4417 257.395 57.3715V36.825H264.007V65.4012H267.432V72.25H260.347V66.8182H257.867C256.607 68.7862 254.915 70.3016 252.789 71.3644C250.664 72.3878 248.145 72.8995 245.232 72.8995ZM288.864 72.9585C283.944 72.9585 280.067 71.9351 277.233 69.8883C274.399 67.8416 272.844 64.9879 272.568 61.3273H279.122C279.397 63.4922 280.342 65.0863 281.956 66.1097C283.57 67.1331 285.951 67.6447 289.1 67.6447C294.611 67.6447 297.366 65.9129 297.366 62.4491C297.366 61.0321 296.933 59.9497 296.067 59.2018C295.24 58.4146 293.823 57.8438 291.816 57.4896L284.081 56.0726C277.508 54.8524 274.221 51.7232 274.221 46.685C274.221 43.418 275.461 40.8398 277.941 38.9505C280.421 37.0612 283.806 36.1165 288.096 36.1165C292.544 36.1165 296.067 37.0808 298.665 39.0095C301.302 40.9382 302.798 43.6542 303.152 47.1573H296.716C296.323 45.1892 295.398 43.7329 293.941 42.7882C292.524 41.8435 290.517 41.3712 287.919 41.3712C285.518 41.3712 283.648 41.7845 282.31 42.6111C281.011 43.4377 280.362 44.6382 280.362 46.2126C280.362 47.4328 280.775 48.3972 281.602 49.1057C282.468 49.7748 283.845 50.2865 285.735 50.6407L293.469 52.1168C296.933 52.7466 299.472 53.8684 301.085 55.4822C302.699 57.096 303.506 59.2608 303.506 61.9767C303.506 65.4405 302.247 68.1368 299.727 70.0655C297.208 71.9942 293.587 72.9585 288.864 72.9585Z" fill="#235EE8"/>
<path d="M332.652 73.0175C327.811 73.0175 323.58 72.0138 319.958 70.0064C316.377 67.9596 313.602 65.0863 311.634 61.3863C309.666 57.6864 308.682 53.337 308.682 48.3381C308.682 43.3393 309.666 39.0095 311.634 35.349C313.602 31.649 316.377 28.7953 319.958 26.7879C323.58 24.7411 327.811 23.7178 332.652 23.7178C336.352 23.7178 339.619 24.3278 342.453 25.548C345.327 26.7289 347.688 28.4804 349.538 30.8027C351.388 33.0857 352.648 35.8607 353.317 39.1276H346.468C345.76 36.0968 344.205 33.7548 341.804 32.1017C339.442 30.4485 336.392 29.6219 332.652 29.6219C327.26 29.6219 323.029 31.2948 319.958 34.6405C316.888 37.9862 315.353 42.552 315.353 48.3381C315.353 54.1636 316.888 58.7491 319.958 62.0948C323.029 65.4012 327.26 67.0543 332.652 67.0543C336.392 67.0543 339.442 66.2474 341.804 64.6336C344.205 62.9805 345.76 60.6385 346.468 57.6077H353.317C352.648 60.8353 351.388 63.6102 349.538 65.9325C347.688 68.2155 345.327 69.9671 342.453 71.1872C339.619 72.4074 336.352 73.0175 332.652 73.0175ZM370.028 72.8995C366.013 72.8995 362.844 71.9154 360.522 69.9474C358.239 67.94 357.098 65.3224 357.098 62.0948C357.098 58.7098 358.239 56.0923 360.522 54.2423C362.805 52.353 366.092 51.4083 370.382 51.4083H382.485V49.8142C382.485 44.343 379.474 41.6074 373.452 41.6074C368.532 41.6074 365.56 43.4573 364.537 47.1573H357.865C358.455 43.6542 360.128 40.9382 362.884 39.0095C365.678 37.0808 369.24 36.1165 373.57 36.1165C378.49 36.1165 382.249 37.2777 384.847 39.6C387.484 41.9223 388.803 45.268 388.803 49.637V65.4012H391.991V72.25H384.906V66.8182H382.426C381.206 68.7075 379.533 70.2032 377.408 71.3053C375.282 72.3681 372.822 72.8995 370.028 72.8995ZM370.913 67.5857C373.039 67.5857 374.987 67.1527 376.758 66.2868C378.53 65.4208 379.927 64.24 380.95 62.7443C381.974 61.2486 382.485 59.6151 382.485 57.8438V56.2497H370.795C365.836 56.2497 363.356 58.0997 363.356 61.7996C363.356 63.5709 364.025 64.9879 365.363 66.0506C366.702 67.074 368.552 67.5857 370.913 67.5857ZM400.656 72.25V43.6738H397.232V36.825H404.317V43.4377H406.797C407.781 41.2728 409.296 39.5803 411.343 38.3601C413.429 37.1399 415.869 36.5298 418.664 36.5298H421.557V42.1978H418.31C414.767 42.1978 412.032 43.2409 410.103 45.327C408.174 47.4131 407.21 50.2275 407.21 53.77V72.25H400.656ZM442.058 72.9585C438.359 72.9585 435.151 72.2106 432.435 70.7149C429.719 69.1798 427.613 67.015 426.117 64.2203C424.661 61.4257 423.933 58.1587 423.933 54.4194C423.933 50.6801 424.661 47.4525 426.117 44.7366C427.613 41.9813 429.699 39.8558 432.376 38.3601C435.052 36.8644 438.181 36.1165 441.763 36.1165C445.188 36.1165 448.14 36.8053 450.619 38.183C453.139 39.5606 455.087 41.509 456.465 44.0281C457.842 46.5472 458.531 49.5386 458.531 53.0024V55.6593H430.309C430.506 59.3592 431.628 62.2523 433.675 64.3384C435.761 66.3852 438.536 67.4086 441.999 67.4086C444.4 67.4086 446.428 66.9166 448.081 65.9325C449.734 64.9092 450.875 63.4134 451.505 61.4454H458.236C457.37 65.106 455.5 67.94 452.627 69.9474C449.793 71.9548 446.27 72.9585 442.058 72.9585ZM430.545 50.8179H452.155C451.84 47.9052 450.757 45.6419 448.907 44.0281C447.097 42.4143 444.696 41.6074 441.704 41.6074C438.752 41.6074 436.292 42.4143 434.324 44.0281C432.356 45.6419 431.096 47.9052 430.545 50.8179Z" fill="#0B3C64"/>
</g>
<defs>
<clipPath id="clip0_2026_29383">
<rect width="466.13" height="93" fill="white"/>
</clipPath>
</defs>
</svg>
