<svg width="198" height="40" viewBox="0 0 198 40" fill="none" xmlns="http://www.w3.org/2000/svg">
<path d="M0.953609 24.7549C1.9615 26.5372 3.19521 28.1813 4.62401 29.6463C11.5628 36.3834 23.5121 35.6512 29.53 28.0606C31.5144 25.5521 31.4798 22.9526 29.2966 20.6044C27.2412 18.3744 25.8878 15.5863 25.4057 12.5893C25.1937 11.7166 25.2251 10.8024 25.4965 9.94644C25.6348 9.57385 25.7818 9.26191 26.2357 9.23158C26.427 9.2231 26.6157 9.27848 26.7722 9.38904C26.9286 9.49959 27.0441 9.65907 27.1004 9.84246C27.3641 10.4144 27.5716 11.0166 27.7921 11.6101C28.0904 12.4073 28.3584 13.2218 28.6784 14.0103C28.9377 14.6515 29.262 15.2754 30.1309 15.0761C30.9264 14.8942 31.268 14.3223 31.3631 13.5424C31.5232 12.3175 31.3989 11.072 30.9999 9.90312C29.7894 6.46744 27.9737 3.51267 24.4459 1.98763C24.2412 1.89681 24.0539 1.7707 23.8926 1.61504C23.5121 1.26411 22.9977 0.861183 23.2527 0.315287C23.5078 -0.230608 24.1174 0.0769995 24.5497 0.176647C28.5832 1.09514 31.5663 3.55167 33.5679 7.06966C36.8362 12.8362 37.9819 19.0967 36.659 25.6214C35.2453 32.5924 30.8702 37.0896 24.1433 39.1475C21.6833 39.9053 19.091 40.132 16.5371 39.8128C13.9833 39.4935 11.526 38.6355 9.32719 37.2952C7.12834 35.955 5.23788 34.163 3.78039 32.0373C2.3229 29.9116 1.33148 27.5005 0.871468 24.9629C0.871468 24.9326 0.871468 24.8979 0.953609 24.7549Z" fill="#A7A7A7"/>
<path d="M4.76235 12.3293C1.87445 12.4116 0.0932866 11.0296 0.0068224 8.67702C-0.0235134 8.17354 0.0475281 7.66909 0.215719 7.19369C0.38391 6.71829 0.645813 6.28165 0.985842 5.90977C1.32587 5.53788 1.73708 5.23835 2.19499 5.02899C2.6529 4.81963 3.14816 4.70473 3.65129 4.69112C6.17172 4.6218 7.54218 6.22482 7.67187 9.45687C12.3986 6.479 17.1253 6.466 21.852 9.41788C18.5966 8.65536 15.4364 8.76367 12.475 10.5313C11.0472 11.3399 9.81145 12.4493 8.85309 13.7829C7.89472 15.1166 7.23654 16.6428 6.92396 18.2562C5.86045 23.3685 8.42411 29.9539 15.9206 31.9556C12.7603 32.7267 7.8448 30.8378 5.49297 27.8397C1.59344 22.8703 1.48104 17.6713 4.76235 12.3293Z" fill="#A7A7A7"/>
<path d="M30.6454 12.1214C29.4522 9.74715 28.1077 7.55057 25.8596 6.05586C25.3897 5.76084 24.8984 5.50161 24.3897 5.28034C23.8702 5.06408 23.4431 4.67142 23.1836 4.17122C22.9544 3.70331 22.9977 3.17041 23.6764 3.30472C25.116 3.57766 26.5816 3.73797 27.6192 5.08538C29.2533 7.16931 30.5027 9.38755 30.6454 12.1214Z" fill="#A7A7A7"/>
<path d="M48.1525 29.8668V7.60474H61.501V9.99617H50.8483V17.5183H60.501V19.9097H50.8483V29.8668H48.1525Z" fill="#A7A7A7"/>
<path d="M71.3276 30.2146C69.8203 30.2146 68.4978 29.8559 67.36 29.1385C66.2295 28.421 65.3454 27.4174 64.7077 26.1275C64.0773 24.8375 63.762 23.3302 63.762 21.6055C63.762 19.8663 64.0773 18.3481 64.7077 17.0509C65.3454 15.7537 66.2295 14.7464 67.36 14.029C68.4978 13.3116 69.8203 12.9529 71.3276 12.9529C72.835 12.9529 74.1539 13.3116 75.2844 14.029C76.4221 14.7464 77.3062 15.7537 77.9367 17.0509C78.5744 18.3481 78.8932 19.8663 78.8932 21.6055C78.8932 23.3302 78.5744 24.8375 77.9367 26.1275C77.3062 27.4174 76.4221 28.421 75.2844 29.1385C74.1539 29.8559 72.835 30.2146 71.3276 30.2146ZM71.3276 27.9102C72.4726 27.9102 73.4147 27.6167 74.1539 27.0297C74.893 26.4427 75.4402 25.6709 75.7953 24.7143C76.1504 23.7578 76.3279 22.7215 76.3279 21.6055C76.3279 20.4895 76.1504 19.4496 75.7953 18.4857C75.4402 17.5219 74.893 16.7429 74.1539 16.1487C73.4147 15.5544 72.4726 15.2573 71.3276 15.2573C70.1826 15.2573 69.2406 15.5544 68.5014 16.1487C67.7622 16.7429 67.2151 17.5219 66.86 18.4857C66.5049 19.4496 66.3274 20.4895 66.3274 21.6055C66.3274 22.7215 66.5049 23.7578 66.86 24.7143C67.2151 25.6709 67.7622 26.4427 68.5014 27.0297C69.2406 27.6167 70.1826 27.9102 71.3276 27.9102Z" fill="#A7A7A7"/>
<path d="M89.5922 30.2146C88.0269 30.2146 86.679 29.845 85.5485 29.1059C84.418 28.3667 83.5484 27.3485 82.9397 26.0514C82.3309 24.7542 82.0266 23.2722 82.0266 21.6055C82.0266 19.9097 82.3382 18.4133 82.9614 17.1161C83.5919 15.8117 84.4687 14.7935 85.592 14.0616C86.7225 13.3224 88.0414 12.9529 89.5487 12.9529C90.7227 12.9529 91.7807 13.1703 92.7228 13.6051C93.6649 14.0399 94.4366 14.6486 95.0381 15.4312C95.6396 16.2139 96.0128 17.127 96.1577 18.1705H93.5924C93.3967 17.4096 92.9619 16.7357 92.288 16.1487C91.6213 15.5544 90.7227 15.2573 89.5922 15.2573C88.5921 15.2573 87.7153 15.5182 86.9616 16.04C86.2152 16.5545 85.6318 17.2828 85.2115 18.2249C84.7985 19.1597 84.5919 20.2576 84.5919 21.5185C84.5919 22.8084 84.7948 23.9317 85.2006 24.8883C85.6137 25.8448 86.1935 26.5876 86.9399 27.1166C87.6935 27.6456 88.5776 27.9102 89.5922 27.9102C90.2589 27.9102 90.864 27.7942 91.4075 27.5623C91.951 27.3304 92.4112 26.9971 92.788 26.5623C93.1648 26.1275 93.433 25.6057 93.5924 24.997H96.1577C96.0128 25.9825 95.6541 26.8702 95.0816 27.6601C94.5163 28.4428 93.7663 29.066 92.8315 29.5298C91.9039 29.9863 90.8241 30.2146 89.5922 30.2146Z" fill="#A7A7A7"/>
<path d="M110.43 23.0403V13.1703H112.996V29.8668H110.43V27.0405H110.256C109.865 27.8884 109.256 28.6095 108.43 29.2037C107.604 29.7907 106.56 30.0842 105.3 30.0842C104.256 30.0842 103.328 29.8559 102.517 29.3994C101.705 28.9356 101.067 28.2399 100.604 27.3123C100.14 26.3775 99.9079 25.1999 99.9079 23.7795V13.1703H102.473V23.6056C102.473 24.823 102.814 25.7941 103.495 26.5188C104.184 27.2435 105.06 27.6058 106.126 27.6058C106.763 27.6058 107.412 27.4427 108.071 27.1166C108.738 26.7905 109.296 26.2905 109.745 25.6166C110.202 24.9426 110.43 24.0839 110.43 23.0403Z" fill="#A7A7A7"/>
<path d="M129.521 16.9096L127.216 17.5618C127.071 17.1777 126.858 16.8045 126.575 16.4422C126.3 16.0726 125.923 15.7682 125.445 15.5291C124.966 15.2899 124.354 15.1704 123.608 15.1704C122.586 15.1704 121.734 15.4059 121.053 15.8769C120.379 16.3407 120.042 16.9313 120.042 17.6487C120.042 18.2865 120.274 18.7901 120.738 19.1597C121.202 19.5293 121.926 19.8373 122.912 20.0837L125.39 20.6924C126.883 21.0547 127.995 21.6091 128.727 22.3555C129.459 23.0947 129.825 24.0476 129.825 25.2144C129.825 26.1709 129.55 27.026 128.999 27.7797C128.456 28.5334 127.695 29.1276 126.716 29.5624C125.738 29.9972 124.6 30.2146 123.303 30.2146C121.6 30.2146 120.191 29.845 119.075 29.1059C117.959 28.3667 117.252 27.2869 116.955 25.8666L119.39 25.2578C119.622 26.1564 120.06 26.8304 120.705 27.2797C121.357 27.729 122.209 27.9536 123.26 27.9536C124.455 27.9536 125.405 27.7 126.108 27.1927C126.818 26.6782 127.173 26.0622 127.173 25.3448C127.173 24.7651 126.97 24.2795 126.564 23.8882C126.158 23.4896 125.535 23.1925 124.695 22.9969L121.912 22.3446C120.383 21.9823 119.259 21.4207 118.542 20.6598C117.832 19.8916 117.477 18.9314 117.477 17.7792C117.477 16.8371 117.741 16.0037 118.27 15.2791C118.807 14.5544 119.535 13.9855 120.455 13.5724C121.383 13.1594 122.434 12.9529 123.608 12.9529C125.26 12.9529 126.557 13.3152 127.499 14.0399C128.448 14.7645 129.122 15.7211 129.521 16.9096Z" fill="#A7A7A7"/>
<path d="M151.949 14.5616H149.253C149.093 13.7862 148.814 13.105 148.416 12.518C148.025 11.9311 147.546 11.4383 146.981 11.0397C146.423 10.6339 145.803 10.3295 145.122 10.1266C144.441 9.92371 143.731 9.82225 142.992 9.82225C141.644 9.82225 140.423 10.1628 139.328 10.844C138.241 11.5252 137.375 12.5289 136.731 13.8551C136.093 15.1812 135.774 16.8081 135.774 18.7358C135.774 20.6634 136.093 22.2903 136.731 23.6164C137.375 24.9426 138.241 25.9463 139.328 26.6275C140.423 27.3087 141.644 27.6493 142.992 27.6493C143.731 27.6493 144.441 27.5478 145.122 27.3449C145.803 27.142 146.423 26.8413 146.981 26.4427C147.546 26.0369 148.025 25.5405 148.416 24.9535C148.814 24.3592 149.093 23.678 149.253 22.9099H151.949C151.746 24.0476 151.376 25.0658 150.84 25.9644C150.304 26.863 149.637 27.6275 148.84 28.258C148.043 28.8812 147.148 29.3559 146.155 29.682C145.169 30.0081 144.115 30.1711 142.992 30.1711C141.093 30.1711 139.405 29.7073 137.926 28.7798C136.448 27.8522 135.285 26.5333 134.437 24.823C133.589 23.1128 133.165 21.0837 133.165 18.7358C133.165 16.3878 133.589 14.3587 134.437 12.6485C135.285 10.9383 136.448 9.61934 137.926 8.69176C139.405 7.76417 141.093 7.30038 142.992 7.30038C144.115 7.30038 145.169 7.46343 146.155 7.78954C147.148 8.11564 148.043 8.59393 148.84 9.22439C149.637 9.84762 150.304 10.6085 150.84 11.5071C151.376 12.3985 151.746 13.4166 151.949 14.5616Z" fill="#A7A7A7"/>
<path d="M160.87 30.2581C159.812 30.2581 158.852 30.0588 157.99 29.6602C157.127 29.2544 156.443 28.6711 155.935 27.9102C155.428 27.142 155.174 26.2144 155.174 25.1274C155.174 24.1708 155.363 23.3954 155.74 22.8012C156.116 22.1997 156.62 21.7287 157.251 21.3881C157.881 21.0475 158.577 20.7938 159.338 20.6272C160.106 20.4532 160.878 20.3156 161.653 20.2141C162.668 20.0837 163.49 19.9858 164.121 19.9206C164.758 19.8481 165.222 19.7286 165.512 19.5619C165.809 19.3952 165.958 19.1053 165.958 18.6923V18.6053C165.958 17.5328 165.664 16.6994 165.077 16.1052C164.497 15.511 163.617 15.2138 162.436 15.2138C161.211 15.2138 160.251 15.482 159.555 16.0182C158.859 16.5545 158.37 17.127 158.088 17.7357L155.653 16.8661C156.087 15.8516 156.667 15.0617 157.392 14.4964C158.124 13.9239 158.921 13.5253 159.783 13.3007C160.653 13.0688 161.508 12.9529 162.349 12.9529C162.885 12.9529 163.501 13.0181 164.197 13.1485C164.9 13.2717 165.577 13.529 166.229 13.9203C166.889 14.3116 167.436 14.9022 167.871 15.6921C168.306 16.482 168.523 17.54 168.523 18.8662V29.8668H165.958V27.6058H165.827C165.653 27.9681 165.363 28.3558 164.958 28.7689C164.552 29.182 164.012 29.5334 163.338 29.8233C162.664 30.1132 161.841 30.2581 160.87 30.2581ZM161.262 27.9536C162.276 27.9536 163.131 27.7543 163.827 27.3558C164.53 26.9572 165.059 26.4427 165.414 25.8122C165.776 25.1817 165.958 24.5187 165.958 23.823V21.475C165.849 21.6055 165.61 21.725 165.24 21.8337C164.878 21.9352 164.458 22.0258 163.979 22.1055C163.508 22.178 163.048 22.2432 162.599 22.3012C162.157 22.3519 161.798 22.3954 161.523 22.4316C160.856 22.5186 160.233 22.6599 159.653 22.8555C159.08 23.044 158.617 23.3302 158.262 23.7143C157.914 24.0911 157.74 24.6056 157.74 25.2578C157.74 26.1492 158.069 26.8231 158.729 27.2797C159.396 27.729 160.24 27.9536 161.262 27.9536Z" fill="#A7A7A7"/>
<path d="M173.205 29.8668V13.1703H175.684V15.6921H175.858C176.162 14.866 176.713 14.1957 177.51 13.6811C178.307 13.1666 179.206 12.9094 180.206 12.9094C180.394 12.9094 180.63 12.913 180.912 12.9202C181.195 12.9275 181.409 12.9384 181.554 12.9529V15.5617C181.467 15.5399 181.267 15.5073 180.956 15.4639C180.651 15.4131 180.329 15.3878 179.988 15.3878C179.177 15.3878 178.452 15.5581 177.814 15.8987C177.184 16.232 176.684 16.6958 176.314 17.29C175.952 17.877 175.771 18.5473 175.771 19.301V29.8668H173.205Z" fill="#A7A7A7"/>
<path d="M191.087 30.2146C189.478 30.2146 188.09 29.8595 186.923 29.1493C185.764 28.4319 184.869 27.4319 184.238 26.1492C183.615 24.8593 183.304 23.3592 183.304 21.649C183.304 19.9387 183.615 18.4314 184.238 17.127C184.869 15.8153 185.746 14.7935 186.869 14.0616C187.999 13.3224 189.318 12.9529 190.826 12.9529C191.695 12.9529 192.554 13.0978 193.402 13.3877C194.25 13.6775 195.022 14.1486 195.717 14.8008C196.413 15.4457 196.967 16.3009 197.38 17.3661C197.793 18.4314 198 19.7431 198 21.3011V22.3881H185.13V20.1706H195.391C195.391 19.2285 195.203 18.3879 194.826 17.6487C194.456 16.9096 193.927 16.3262 193.239 15.8987C192.558 15.4711 191.753 15.2573 190.826 15.2573C189.804 15.2573 188.92 15.511 188.173 16.0182C187.434 16.5183 186.865 17.1705 186.467 17.9749C186.068 18.7792 185.869 19.6416 185.869 20.5619V22.0403C185.869 23.3012 186.086 24.3701 186.521 25.247C186.963 26.1166 187.576 26.7797 188.358 27.2362C189.141 27.6855 190.05 27.9102 191.087 27.9102C191.761 27.9102 192.369 27.8159 192.913 27.6275C193.464 27.4319 193.938 27.142 194.337 26.7579C194.735 26.3666 195.043 25.8811 195.261 25.3013L197.739 25.997C197.478 26.8376 197.04 27.5768 196.424 28.2145C195.808 28.845 195.047 29.3378 194.141 29.6929C193.235 30.0407 192.217 30.2146 191.087 30.2146Z" fill="#A7A7A7"/>
</svg>
