<svg width="201" height="25" viewBox="0 0 201 25" fill="none" xmlns="http://www.w3.org/2000/svg">
<g clip-path="url(#clip0_2003_18)">
<path d="M55.4086 22.9285C53.4053 22.9285 52.4538 22.2586 51.355 21.482C50.1852 20.6585 48.8603 19.7248 46.3165 19.7248C44.6404 19.7248 43.4933 20.1308 42.5709 20.6429C41.3397 17.6857 39.2739 15.1512 36.6258 13.349C33.9777 11.5468 30.862 10.555 27.6594 10.4946C24.4568 10.4343 21.3059 11.3081 18.5918 13.0093C15.8777 14.7104 13.7178 17.1653 12.3762 20.074C11.5885 19.8329 10.7683 19.7154 9.94473 19.7255C7.40095 19.7255 6.07607 20.6592 4.90694 21.4827C3.80537 22.2593 2.85385 22.9292 0.853381 22.9292C0.62705 22.9292 0.409989 23.0191 0.249949 23.1792C0.0899094 23.3392 0 23.5563 0 23.7826C0 24.0089 0.0899094 24.226 0.249949 24.386C0.409989 24.5461 0.62705 24.636 0.853381 24.636C3.39646 24.636 4.72204 23.703 5.89046 22.8787C6.99203 22.1029 7.94355 21.433 9.94402 21.433C10.9012 21.433 11.6174 21.5873 12.2254 21.8319L12.7232 22.0602C13.1675 22.3045 13.5951 22.5779 14.0033 22.8787C15.1724 23.703 16.4973 24.636 19.0411 24.636C21.5849 24.636 22.909 23.703 24.0781 22.8787C25.1797 22.1029 26.1305 21.433 28.1317 21.433C30.1329 21.433 31.0858 22.1029 32.1853 22.8787C33.3544 23.703 34.6793 24.636 37.2223 24.636C39.7654 24.636 41.091 23.703 42.2601 22.8787C43.3617 22.1029 44.3125 21.433 46.3137 21.433C48.3149 21.433 49.2685 22.1029 50.3673 22.8787C51.5364 23.703 52.8613 24.636 55.405 24.636C55.6314 24.636 55.8484 24.5461 56.0085 24.386C56.1685 24.226 56.2584 24.0089 56.2584 23.7826C56.2584 23.5563 56.1685 23.3392 56.0085 23.1792C55.8484 23.0191 55.6314 22.9292 55.405 22.9292L55.4086 22.9285ZM33.1659 21.482C31.9968 20.6585 30.6719 19.7248 28.1281 19.7248C25.5844 19.7248 24.2602 20.6585 23.0911 21.482C21.9902 22.2586 21.0387 22.9285 19.0375 22.9285C17.0363 22.9285 16.0834 22.2586 14.9839 21.482C14.6526 21.2488 14.3091 21.007 13.9286 20.7794C15.1044 18.2115 16.995 16.0365 19.3743 14.5147C21.7536 12.9929 24.5208 12.1886 27.3452 12.198C33.4013 12.198 38.9113 15.9671 41.1145 21.5965C40.079 22.3226 39.1232 22.9285 37.2209 22.9285C35.2183 22.9285 34.2668 22.2586 33.1659 21.482Z" fill="#A7A7A7"/>
<path d="M27.9742 9.95611C28.2005 9.95611 28.4176 9.8662 28.5776 9.70616C28.7376 9.54612 28.8275 9.32906 28.8275 9.10273V0.853381C28.8275 0.62705 28.7376 0.40999 28.5776 0.24995C28.4176 0.08991 28.2005 0 27.9742 0C27.7478 0 27.5308 0.08991 27.3707 0.24995C27.2107 0.40999 27.1208 0.62705 27.1208 0.853381V9.10273C27.1208 9.32906 27.2107 9.54612 27.3707 9.70616C27.5308 9.8662 27.7478 9.95611 27.9742 9.95611Z" fill="#A7A7A7"/>
<path d="M39.6084 15.1152C39.8343 15.115 40.0509 15.0253 40.2107 14.8656L46.0457 9.03417C46.2061 8.87386 46.2961 8.65642 46.2961 8.4297C46.2961 8.20297 46.2061 7.98554 46.0457 7.82522C45.8854 7.6649 45.668 7.57483 45.4413 7.57483C45.2145 7.57483 44.9971 7.6649 44.8368 7.82522L39.0053 13.6602C38.8866 13.7796 38.8059 13.9315 38.7733 14.0967C38.7407 14.2619 38.7577 14.433 38.8222 14.5886C38.8867 14.7441 38.9957 14.8771 39.1356 14.9709C39.2755 15.0646 39.44 15.1148 39.6084 15.1152Z" fill="#A7A7A7"/>
<path d="M15.1252 13.9399C15.2028 14.0256 15.297 14.0946 15.4021 14.1428C15.5072 14.1909 15.621 14.2172 15.7365 14.2201C15.8521 14.2229 15.9671 14.2022 16.0744 14.1593C16.1817 14.1164 16.2792 14.0521 16.361 13.9704C16.4427 13.8886 16.507 13.7911 16.5499 13.6838C16.5929 13.5764 16.6135 13.4615 16.6107 13.3459C16.6078 13.2304 16.5815 13.1166 16.5334 13.0115C16.4852 12.9064 16.4162 12.8122 16.3306 12.7345L10.4991 6.89955C10.4197 6.82017 10.3255 6.7572 10.2218 6.71424C10.1181 6.67128 10.0069 6.64917 9.89464 6.64917C9.78238 6.64917 9.67122 6.67128 9.5675 6.71424C9.46378 6.7572 9.36954 6.82017 9.29016 6.89955C9.21078 6.97893 9.14781 7.07317 9.10485 7.17689C9.06189 7.28061 9.03978 7.39177 9.03978 7.50403C9.03978 7.61629 9.06189 7.72746 9.10485 7.83117C9.14781 7.93489 9.21078 8.02913 9.29016 8.10851L15.1252 13.9399Z" fill="#A7A7A7"/>
<path d="M65.4165 16.8422V24.3683H61.2586V4.75812H66.9723C69.6365 4.75812 71.6105 5.24323 72.8941 6.21345C74.1778 7.18367 74.8172 8.65695 74.8124 10.6333C74.8283 11.7341 74.4947 12.8116 73.8596 13.7108C73.1745 14.6499 72.2429 15.3809 71.1678 15.823C74.118 20.2314 76.0405 23.0799 76.9353 24.3683H72.3109L67.6291 16.8422H65.4165ZM65.4165 13.4632H66.757C68.0729 13.4632 69.0431 13.2443 69.6676 12.8064C70.2939 12.3668 70.6061 11.6795 70.6061 10.7392C70.6061 9.79885 70.2867 9.14745 69.6479 8.75446C69.009 8.36146 68.0185 8.16406 66.6762 8.16406H65.4201L65.4165 13.4632Z" fill="#A7A7A7"/>
<path d="M90.6869 24.3683H79.3924V4.75812H90.6869V8.16766H83.552V12.4744H90.1917V15.884H83.552V20.9408H90.6869V24.3683Z" fill="#A7A7A7"/>
<path d="M106.354 18.9221C106.354 20.6926 105.716 22.0876 104.441 23.1068C103.166 24.1261 101.393 24.6357 99.124 24.6357C97.0317 24.6357 95.1774 24.2421 93.5611 23.455V19.5932C94.6473 20.0959 95.7711 20.5129 96.9222 20.8404C97.7409 21.0664 98.5852 21.1871 99.4345 21.1993C100.346 21.1993 101.046 21.0246 101.534 20.6753C102.022 20.326 102.266 19.8074 102.264 19.1195C102.269 18.7518 102.157 18.3922 101.943 18.093C101.682 17.7507 101.362 17.4578 100.997 17.2281C100.176 16.7363 99.3274 16.2929 98.4547 15.9002C97.2584 15.3367 96.3611 14.7983 95.763 14.2851C95.1735 13.7785 94.6862 13.1639 94.3274 12.4745C93.9555 11.7246 93.7708 10.8959 93.789 10.0591C93.789 8.32321 94.377 6.9594 95.553 5.96764C96.729 4.97589 98.3542 4.48001 100.429 4.48001C101.413 4.47415 102.393 4.59478 103.346 4.83891C104.339 5.10338 105.31 5.44415 106.25 5.85818L104.909 9.08826C104.066 8.72913 103.198 8.42932 102.313 8.19102C101.653 8.02469 100.975 7.93913 100.294 7.9362C99.5081 7.9362 98.9045 8.11984 98.4834 8.48711C98.2777 8.664 98.1142 8.88481 98.0052 9.13328C97.8962 9.38175 97.8444 9.65153 97.8535 9.92271C97.8452 10.2605 97.9336 10.5936 98.1084 10.8828C98.3241 11.2019 98.6032 11.4731 98.9284 11.6795C99.2993 11.9343 100.178 12.3925 101.565 13.0541C103.399 13.9298 104.655 14.8085 105.333 15.6902C106.011 16.5719 106.352 17.6492 106.354 18.9221Z" fill="#A7A7A7"/>
<path d="M121.912 24.3685L120.491 19.7028H113.342L111.92 24.3685H107.434L114.361 4.68114H119.445L126.393 24.3721L121.912 24.3685ZM119.499 16.2125C118.183 11.9835 117.443 9.59086 117.279 9.03457C117.112 8.48007 116.995 8.04222 116.92 7.721C116.623 8.86589 115.778 11.6958 114.384 16.2107L119.499 16.2125Z" fill="#A7A7A7"/>
<path d="M136.306 13.3557H144.085V23.5233C142.925 23.9104 141.734 24.1997 140.525 24.3882C139.396 24.5544 138.256 24.6372 137.115 24.6359C134.156 24.6359 131.896 23.7661 130.336 22.0267C128.776 20.2872 127.995 17.7905 127.994 14.5365C127.994 11.371 128.9 8.90297 130.711 7.13241C132.522 5.36184 135.034 4.47656 138.248 4.47656C140.25 4.47478 142.232 4.88527 144.069 5.68247L142.678 9.00945C141.295 8.30457 139.765 7.9357 138.212 7.93275C136.417 7.93275 134.978 8.53631 133.892 9.7434C132.807 10.9505 132.269 12.5739 132.277 14.6136C132.277 16.7419 132.713 18.3671 133.586 19.4893C134.458 20.6114 135.725 21.1725 137.388 21.1725C138.275 21.1705 139.16 21.0803 140.03 20.9033V16.8119H136.315L136.306 13.3557Z" fill="#A7A7A7"/>
<path d="M148.753 24.3683V4.75812H152.907V20.9337H160.862V24.3683H148.753Z" fill="#A7A7A7"/>
<path d="M182.07 14.5363C182.07 17.7831 181.266 20.2781 179.657 22.0211C178.048 23.7641 175.741 24.6357 172.735 24.6357C169.732 24.6357 167.424 23.7641 165.814 22.0211C164.204 20.2781 163.399 17.7741 163.401 14.5094C163.401 11.2458 164.207 8.75323 165.821 7.03171C167.435 5.3102 169.749 4.44945 172.762 4.44945C175.776 4.44945 178.081 5.31679 179.677 7.05146C181.272 8.78614 182.07 11.2811 182.07 14.5363ZM167.759 14.5363C167.759 16.7279 168.178 18.3777 169.016 19.4855C169.853 20.5933 171.096 21.1478 172.744 21.149C176.063 21.149 177.722 18.9447 177.721 14.5363C177.719 10.1278 176.067 7.91939 172.762 7.91102C171.108 7.91102 169.861 8.46791 169.021 9.58169C168.181 10.6955 167.761 12.347 167.759 14.5363Z" fill="#A7A7A7"/>
<path d="M186.135 4.75812H192.236C195.018 4.75812 197.036 5.15351 198.292 5.94428C199.549 6.73505 200.177 7.9912 200.177 9.71271C200.177 10.8839 199.902 11.8452 199.353 12.5965C199.097 12.9584 198.771 13.265 198.394 13.4978C198.017 13.7306 197.597 13.8849 197.158 13.9513V14.0859C198.401 14.3634 199.299 14.882 199.85 15.6417C200.402 16.4014 200.677 17.4135 200.676 18.678C200.676 20.4725 200.03 21.868 198.738 22.8645C197.445 23.8611 195.69 24.3617 193.472 24.3665H186.135V4.75812ZM190.293 12.5247H192.708C193.835 12.5247 194.651 12.35 195.156 12.0007C195.661 11.6514 195.913 11.0747 195.913 10.2708C195.913 9.51951 195.638 8.98116 195.089 8.65576C194.54 8.33036 193.67 8.16706 192.48 8.16586H190.293V12.5247ZM190.293 15.823V20.9337H193.002C194.147 20.9337 194.992 20.7147 195.538 20.2769C196.083 19.839 196.356 19.1685 196.356 18.2653C196.356 16.6371 195.194 15.823 192.87 15.823H190.293Z" fill="#A7A7A7"/>
</g>
<defs>
<clipPath id="clip0_2003_18">
<rect width="200.675" height="24.636" fill="white"/>
</clipPath>
</defs>
</svg>
