<svg width="467" height="58" viewBox="0 0 467 58" fill="none" xmlns="http://www.w3.org/2000/svg">
<g clip-path="url(#clip0_2026_29392)">
<mask id="mask0_2026_29392" style="mask-type:luminance" maskUnits="userSpaceOnUse" x="0" y="0" width="466" height="58">
<path d="M465.376 0H0V57.1322H465.376V0Z" fill="white"/>
</mask>
<g mask="url(#mask0_2026_29392)">
<path d="M128.496 53.1724C123.85 53.1724 121.643 51.6189 119.095 49.8179C116.382 47.9082 113.31 45.7429 107.411 45.7429C103.524 45.7429 100.863 46.6844 98.7243 47.872C95.869 41.0141 91.0783 35.1365 84.9372 30.9571C78.7962 26.7777 71.5707 24.4776 64.1437 24.3376C56.7167 24.1977 49.4096 26.2241 43.1154 30.1691C36.8213 34.1142 31.8123 39.8073 28.7011 46.5525C26.8744 45.9936 24.9723 45.7211 23.0624 45.7445C17.1632 45.7445 14.0907 47.9098 11.3795 49.8196C8.82486 51.6205 6.61823 53.1741 1.97904 53.1741C1.45416 53.1741 0.950787 53.3826 0.579645 53.7538C0.208505 54.1249 0 54.6284 0 55.1532C0 55.678 0.208505 56.1814 0.579645 56.5525C0.950787 56.9238 1.45416 57.1322 1.97904 57.1322C7.87658 57.1322 10.9507 54.9683 13.6603 53.057C16.2149 51.2578 18.4215 49.7043 23.0607 49.7043C25.2805 49.7043 26.9414 50.0621 28.3514 50.6294L29.5058 51.1588C30.5362 51.7254 31.5278 52.3594 32.4744 53.057C35.1856 54.9683 38.2581 57.1322 44.1574 57.1322C50.0566 57.1322 53.1272 54.9683 55.8384 53.057C58.3931 51.2578 60.5981 49.7043 65.239 49.7043C69.8798 49.7043 72.0897 51.2578 74.6395 53.057C77.3507 54.9683 80.4232 57.1322 86.3206 57.1322C92.2181 57.1322 95.2923 54.9683 98.0035 53.057C100.558 51.2578 102.763 49.7043 107.404 49.7043C112.045 49.7043 114.256 51.2578 116.805 53.057C119.516 54.9683 122.588 57.1322 128.487 57.1322C129.012 57.1322 129.516 56.9238 129.887 56.5525C130.258 56.1814 130.466 55.678 130.466 55.1532C130.466 54.6284 130.258 54.1249 129.887 53.7538C129.516 53.3826 129.012 53.1741 128.487 53.1741L128.496 53.1724ZM76.9135 49.8179C74.2023 47.9082 71.1298 45.7429 65.2306 45.7429C59.3316 45.7429 56.2607 47.9082 53.5495 49.8179C50.9965 51.6189 48.7899 53.1724 44.149 53.1724C39.5081 53.1724 37.2983 51.6189 34.7485 49.8179C33.9802 49.2771 33.1836 48.7164 32.3012 48.1886C35.0279 42.2335 39.4123 37.1895 44.9301 33.6604C50.4478 30.1313 56.8651 28.266 63.415 28.2876C77.4594 28.2876 90.2374 37.0284 95.3468 50.0835C92.9454 51.7673 90.7288 53.1724 86.3173 53.1724C81.6732 53.1724 79.4666 51.6189 76.9135 49.8179Z" fill="#0770E4"/>
<path d="M64.8737 23.0888C65.3985 23.0888 65.902 22.8803 66.273 22.5091C66.6441 22.138 66.8525 21.6346 66.8525 21.1097V1.97904C66.8525 1.45416 66.6441 0.950789 66.273 0.579648C65.902 0.208506 65.3985 0 64.8737 0C64.3487 0 63.8454 0.208506 63.4742 0.579648C63.1031 0.950789 62.8946 1.45416 62.8946 1.97904V21.1097C62.8946 21.6346 63.1031 22.138 63.4742 22.5091C63.8454 22.8803 64.3487 23.0888 64.8737 23.0888Z" fill="#0770E4"/>
<path d="M91.854 35.053C92.3779 35.0525 92.8802 34.8445 93.2508 34.4741L106.783 20.9507C107.154 20.5789 107.363 20.0747 107.363 19.5489C107.363 19.0231 107.154 18.5189 106.783 18.1471C106.411 17.7753 105.907 17.5664 105.381 17.5664C104.855 17.5664 104.351 17.7753 103.979 18.1471L90.4554 31.6787C90.1802 31.9556 89.993 32.3079 89.9174 32.691C89.8418 33.0741 89.8812 33.4709 90.0308 33.8318C90.1804 34.1924 90.4332 34.5008 90.7576 34.7181C91.082 34.9356 91.4635 35.052 91.854 35.053Z" fill="#0770E4"/>
<path d="M35.0762 32.3274C35.2561 32.5261 35.4746 32.6862 35.7183 32.7979C35.962 32.9095 36.226 32.9705 36.4938 32.9772C36.7619 32.9837 37.0286 32.9357 37.2774 32.8362C37.5262 32.7367 37.7524 32.5876 37.9421 32.3981C38.1315 32.2084 38.2806 31.9823 38.3801 31.7335C38.4798 31.4844 38.5276 31.218 38.5211 30.9499C38.5144 30.682 38.4534 30.4181 38.3419 30.1744C38.2301 29.9307 38.0701 29.7122 37.8716 29.532L24.348 16.0004C24.1639 15.8164 23.9454 15.6703 23.7049 15.5707C23.4644 15.4711 23.2065 15.4198 22.9462 15.4198C22.6859 15.4198 22.4281 15.4711 22.1876 15.5707C21.947 15.6703 21.7285 15.8164 21.5444 16.0004C21.3603 16.1845 21.2143 16.4031 21.1146 16.6436C21.015 16.8841 20.9637 17.1419 20.9637 17.4023C20.9637 17.6626 21.015 17.9204 21.1146 18.1609C21.2143 18.4015 21.3603 18.62 21.5444 18.8041L35.0762 32.3274Z" fill="#0770E4"/>
<path d="M151.704 39.0582V56.5117H142.062V11.0344H155.312C161.491 11.0344 166.069 12.1594 169.045 14.4094C172.022 16.6594 173.505 20.076 173.494 24.6592C173.531 27.212 172.757 29.7108 171.284 31.7963C169.696 33.9739 167.535 35.6694 165.042 36.6944C171.884 46.918 176.342 53.5236 178.417 56.5117H167.693L156.836 39.0582H151.704ZM151.704 31.2219H154.813C157.865 31.2219 160.115 30.7143 161.563 29.6988C163.015 28.6793 163.739 27.0854 163.739 24.9048C163.739 22.7242 162.999 21.2135 161.517 20.3021C160.036 19.3908 157.739 18.933 154.626 18.933H151.713L151.704 31.2219Z" fill="#0770E4"/>
<path d="M210.308 56.5117H184.115V11.0344H210.308V18.9413H193.762V28.9291H209.159V36.8359H193.762V48.5631H210.308V56.5117Z" fill="#0770E4"/>
<path d="M246.641 43.8814C246.641 47.9875 245.161 51.2224 242.204 53.586C239.248 55.9498 235.136 57.1318 229.874 57.1318C225.022 57.1318 220.722 56.219 216.973 54.3934V45.4377C219.492 46.6035 222.098 47.5706 224.768 48.33C226.666 48.8544 228.624 49.1341 230.594 49.1624C232.708 49.1624 234.331 48.7572 235.463 47.9472C236.595 47.1371 237.16 45.9345 237.156 44.3392C237.167 43.4867 236.908 42.6528 236.411 41.9587C235.806 41.1651 235.064 40.4858 234.218 39.9529C232.314 38.8124 230.346 37.7841 228.322 36.8735C225.548 35.5667 223.467 34.3183 222.08 33.1279C220.713 31.9531 219.582 30.5281 218.75 28.9291C217.888 27.19 217.46 25.2682 217.502 23.3276C217.502 19.302 218.865 16.1393 221.593 13.8393C224.32 11.5394 228.089 10.3894 232.9 10.3894C235.182 10.3759 237.455 10.6556 239.665 11.2218C241.968 11.8351 244.22 12.6253 246.4 13.5855L243.29 21.0762C241.335 20.2434 239.322 19.5481 237.269 18.9955C235.739 18.6098 234.167 18.4113 232.587 18.4045C230.765 18.4045 229.365 18.8304 228.388 19.6821C227.911 20.0924 227.532 20.6044 227.279 21.1806C227.027 21.7569 226.907 22.3825 226.928 23.0114C226.908 23.7947 227.113 24.5672 227.519 25.2378C228.019 25.9778 228.666 26.6068 229.42 27.0854C230.281 27.6763 232.318 28.7389 235.535 30.2732C239.788 32.304 242.701 34.3417 244.273 36.3864C245.845 38.4312 246.636 40.9295 246.641 43.8814Z" fill="#0770E4"/>
<path d="M282.721 56.5119L279.425 45.6919H262.846L259.549 56.5119H249.145L265.209 10.8558H276.999L293.112 56.5202L282.721 56.5119ZM277.125 37.5979C274.073 27.7904 272.357 22.2418 271.976 20.9517C271.589 19.6658 271.318 18.6504 271.144 17.9055C270.455 20.5605 268.496 27.1232 265.263 37.5937L277.125 37.5979Z" fill="#0770E4"/>
<path d="M316.101 30.9726H334.141V54.5518C331.451 55.4495 328.689 56.1204 325.885 56.5576C323.267 56.943 320.623 57.135 317.977 57.132C311.115 57.132 305.874 55.1149 302.256 51.0811C298.639 47.0471 296.827 41.2572 296.825 33.7109C296.825 26.37 298.926 20.6465 303.126 16.5405C307.326 12.4344 313.151 10.3814 320.605 10.3814C325.247 10.3773 329.844 11.3292 334.104 13.178L330.878 20.8934C327.671 19.2588 324.123 18.4034 320.521 18.3965C316.359 18.3965 313.021 19.7962 310.503 22.5955C307.987 25.3948 306.739 29.1596 306.758 33.8897C306.758 38.8254 307.769 42.5943 309.793 45.1968C311.815 47.799 314.754 49.1002 318.61 49.1002C320.667 49.0956 322.72 48.8864 324.737 48.4759V38.9877H316.122L316.101 30.9726Z" fill="#0770E4"/>
<path d="M344.966 56.5117V11.0344H354.6V48.5464H373.048V56.5117H344.966Z" fill="#0770E4"/>
<path d="M422.23 33.7105C422.23 41.24 420.366 47.026 416.634 51.0681C412.903 55.1105 407.553 57.1315 400.582 57.1315C393.618 57.1315 388.265 55.1105 384.532 51.0681C380.798 47.026 378.931 41.2193 378.936 33.6481C378.936 26.0796 380.805 20.2992 384.548 16.307C388.291 12.3147 393.657 10.3185 400.645 10.3185C407.634 10.3185 412.98 12.33 416.681 16.3527C420.38 20.3756 422.23 26.1615 422.23 33.7105ZM389.042 33.7105C389.042 38.7931 390.014 42.6189 391.957 45.1879C393.898 47.757 396.781 49.0429 400.603 49.0457C408.3 49.0457 412.147 43.934 412.145 33.7105C412.14 23.4869 408.309 18.3655 400.645 18.3461C396.809 18.3461 393.917 19.6376 391.969 22.2205C390.021 24.8035 389.047 28.6334 389.042 33.7105Z" fill="#0770E4"/>
<path d="M431.657 11.0344H445.806C452.257 11.0344 456.937 11.9513 459.85 13.7852C462.765 15.619 464.221 18.5321 464.221 22.5244C464.221 25.2404 463.584 27.4697 462.311 29.212C461.717 30.0515 460.961 30.7623 460.087 31.3021C459.212 31.8423 458.238 32.1999 457.22 32.3538V32.666C460.103 33.3098 462.185 34.5124 463.463 36.274C464.743 38.0358 465.381 40.3829 465.379 43.3153C465.379 47.4769 463.881 50.7131 460.884 53.0243C457.886 55.3352 453.816 56.4964 448.672 56.5075H431.657V11.0344ZM441.3 29.0455H446.9C449.514 29.0455 451.406 28.6403 452.577 27.8303C453.749 27.0202 454.333 25.6831 454.333 23.8186C454.333 22.0763 453.695 20.8279 452.422 20.0733C451.149 19.3186 449.131 18.9399 446.372 18.9371H441.3V29.0455ZM441.3 36.6944V48.5464H447.582C450.238 48.5464 452.197 48.0388 453.463 47.0233C454.727 46.0077 455.36 44.4528 455.36 42.3582C455.36 38.5824 452.666 36.6944 447.276 36.6944H441.3Z" fill="#0770E4"/>
</g>
</g>
<defs>
<clipPath id="clip0_2026_29392">
<rect width="466.13" height="57.9764" fill="white"/>
</clipPath>
</defs>
</svg>
