<svg width="193" height="34" viewBox="0 0 193 34" fill="none" xmlns="http://www.w3.org/2000/svg">
<g clip-path="url(#clip0_2003_29828)">
<path d="M27.1265 33.26L23.1642 19.5444V14.6677V4H46.3284V14.6677H30.784L38.099 29.6025L27.1265 33.26Z" fill="#A7A7A7"/>
<path d="M19.2019 33.26L23.1642 19.5444V14.6677V4H6.86646e-05V14.6677H15.5444L8.22944 29.6025L19.2019 33.26Z" fill="#A7A7A7"/>
<path d="M23.1405 14.0581V4H29.5411V14.0581H23.1405Z" fill="#A7A7A7"/>
<path d="M16.74 14.0581V4H23.1406V14.0581H16.74Z" fill="#A7A7A7"/>
</g>
<path d="M71.7199 10.1027C71.5977 9.01823 71.0938 8.17812 70.2082 7.58241C69.3226 6.97906 68.2079 6.67738 66.8641 6.67738C65.9021 6.67738 65.0699 6.83013 64.3675 7.13562C63.6651 7.43348 63.1192 7.8459 62.7298 8.37288C62.3481 8.89222 62.1572 9.48411 62.1572 10.1486C62.1572 10.7061 62.287 11.1872 62.5466 11.592C62.8138 11.9968 63.1612 12.3367 63.5887 12.6116C64.0239 12.8789 64.4897 13.1042 64.9859 13.2875C65.4822 13.4632 65.9594 13.6083 66.4175 13.7228L68.7079 14.3186C69.4562 14.5018 70.2235 14.7501 71.0099 15.0632C71.7963 15.3763 72.5254 15.7887 73.1973 16.3004C73.8691 16.8121 74.4112 17.446 74.8235 18.2021C75.2434 18.9582 75.4534 19.8633 75.4534 20.9172C75.4534 22.2461 75.1098 23.4261 74.4227 24.4571C73.7432 25.4882 72.7544 26.3016 71.4565 26.8973C70.1662 27.493 68.6049 27.7908 66.7725 27.7908C65.0165 27.7908 63.4971 27.5121 62.2145 26.9545C60.9318 26.397 59.9278 25.6066 59.2025 24.5831C58.4772 23.5521 58.0763 22.3301 58 20.9172H61.5502C61.6189 21.765 61.8938 22.4714 62.3748 23.0366C62.8634 23.5941 63.4857 24.0103 64.2415 24.2853C65.005 24.5526 65.841 24.6863 66.7496 24.6863C67.7498 24.6863 68.6392 24.5297 69.418 24.2166C70.2044 23.8958 70.8228 23.4528 71.2733 22.8877C71.7237 22.3149 71.949 21.6466 71.949 20.8829C71.949 20.1879 71.7504 19.6189 71.3534 19.1759C70.9641 18.7329 70.4334 18.3663 69.7616 18.0761C69.0973 17.7859 68.3453 17.5301 67.5054 17.3086L64.734 16.5525C62.8558 16.0408 61.367 15.2885 60.2676 14.2956C59.1758 13.3028 58.6299 11.9892 58.6299 10.3548C58.6299 9.00296 58.9964 7.82299 59.7293 6.81486C60.4623 5.80673 61.4548 5.0239 62.7069 4.46637C63.959 3.90121 65.3715 3.61862 66.9443 3.61862C68.5323 3.61862 69.9333 3.89739 71.1473 4.45492C72.3689 5.01244 73.3309 5.78 74.0333 6.75758C74.7357 7.72752 75.1022 8.84257 75.1327 10.1027H71.7199Z" fill="#A7A7A7"/>
<path d="M84.2828 16.9534V27.4013H80.8585V3.93939H84.237V12.6689H84.4546C84.8669 11.7219 85.4967 10.9696 86.3442 10.412C87.1917 9.85452 88.2987 9.57576 89.6654 9.57576C90.8717 9.57576 91.9253 9.82397 92.8262 10.3204C93.7348 10.8168 94.4372 11.5576 94.9335 12.5429C95.4374 13.5204 95.6893 14.7424 95.6893 16.2088V27.4013H92.2651V16.6212C92.2651 15.3305 91.933 14.33 91.2687 13.6197C90.6045 12.9018 89.6807 12.5429 88.4972 12.5429C87.688 12.5429 86.9626 12.7147 86.3213 13.0584C85.6876 13.4021 85.1875 13.9061 84.821 14.5706C84.4622 15.2274 84.2828 16.0217 84.2828 16.9534Z" fill="#A7A7A7"/>
<path d="M101.71 27.4013V9.80488H105.134V27.4013H101.71ZM103.439 7.0898C102.844 7.0898 102.332 6.89123 101.905 6.49409C101.485 6.08931 101.275 5.60815 101.275 5.05063C101.275 4.48546 101.485 4.00431 101.905 3.60717C102.332 3.20239 102.844 3 103.439 3C104.035 3 104.543 3.20239 104.963 3.60717C105.39 4.00431 105.604 4.48546 105.604 5.05063C105.604 5.60815 105.39 6.08931 104.963 6.49409C104.543 6.89123 104.035 7.0898 103.439 7.0898Z" fill="#A7A7A7"/>
<path d="M114.616 16.9534V27.4013H111.192V3.93939H114.571V12.6689H114.788C115.201 11.7219 115.83 10.9696 116.678 10.412C117.525 9.85452 118.632 9.57576 119.999 9.57576C121.205 9.57576 122.259 9.82397 123.16 10.3204C124.068 10.8168 124.771 11.5576 125.267 12.5429C125.771 13.5204 126.023 14.7424 126.023 16.2088V27.4013H122.599V16.6212C122.599 15.3305 122.267 14.33 121.602 13.6197C120.938 12.9018 120.014 12.5429 118.831 12.5429C118.022 12.5429 117.296 12.7147 116.655 13.0584C116.021 13.4021 115.521 13.9061 115.155 14.5706C114.796 15.2274 114.616 16.0217 114.616 16.9534Z" fill="#A7A7A7"/>
<path d="M137.163 27.7908C136.048 27.7908 135.04 27.5846 134.14 27.1722C133.239 26.7522 132.525 26.145 131.998 25.3507C131.479 24.5564 131.219 23.5827 131.219 22.4294C131.219 21.4366 131.41 20.6194 131.792 19.9778C132.174 19.3363 132.689 18.8284 133.338 18.4542C133.987 18.0799 134.712 17.7974 135.514 17.6064C136.315 17.4155 137.132 17.2704 137.965 17.1711C139.018 17.0489 139.873 16.9496 140.53 16.8732C141.187 16.7892 141.664 16.6556 141.961 16.4723C142.259 16.289 142.408 15.9911 142.408 15.5787V15.4985C142.408 14.498 142.126 13.7228 141.561 13.1729C141.003 12.6231 140.171 12.3481 139.064 12.3481C137.911 12.3481 137.003 12.604 136.338 13.1157C135.682 13.6197 135.228 14.1811 134.976 14.7997L131.757 14.0665C132.139 12.9973 132.697 12.1343 133.429 11.4775C134.17 10.813 135.021 10.3319 135.983 10.034C136.945 9.72851 137.957 9.57576 139.018 9.57576C139.721 9.57576 140.465 9.65977 141.251 9.82779C142.045 9.98818 142.786 10.286 143.473 10.7214C144.168 11.1567 144.737 11.7791 145.18 12.5887C145.622 13.3906 145.844 14.4331 145.844 15.7162V27.4013H142.5V24.9956H142.362C142.141 25.4385 141.809 25.8739 141.366 26.3016C140.923 26.7292 140.354 27.0844 139.66 27.367C138.965 27.6495 138.133 27.7908 137.163 27.7908ZM137.907 25.0414C138.854 25.0414 139.663 24.8543 140.335 24.48C141.015 24.1058 141.53 23.617 141.881 23.0137C142.24 22.4027 142.42 21.7497 142.42 21.0547V18.7864C142.297 18.9086 142.061 19.0232 141.71 19.1301C141.366 19.2294 140.973 19.3172 140.53 19.3936C140.087 19.4623 139.656 19.5272 139.236 19.5883C138.816 19.6418 138.465 19.6876 138.182 19.7258C137.518 19.8098 136.911 19.9511 136.361 20.1497C135.819 20.3482 135.384 20.6346 135.056 21.0089C134.735 21.3755 134.575 21.8643 134.575 22.4752C134.575 23.323 134.888 23.9645 135.514 24.3999C136.14 24.8275 136.938 25.0414 137.907 25.0414Z" fill="#A7A7A7"/>
<path d="M155.28 16.9534V27.4013H151.856V9.80488H155.143V12.6689H155.36C155.765 11.7371 156.399 10.9887 157.261 10.4235C158.132 9.85834 159.227 9.57576 160.548 9.57576C161.747 9.57576 162.797 9.82779 163.698 10.3319C164.599 10.8283 165.297 11.5691 165.793 12.5543C166.29 13.5395 166.538 14.7577 166.538 16.2088V27.4013H163.114V16.6212C163.114 15.3458 162.782 14.3491 162.117 13.6312C161.453 12.9056 160.541 12.5429 159.38 12.5429C158.586 12.5429 157.88 12.7147 157.261 13.0584C156.651 13.4021 156.166 13.9061 155.807 14.5706C155.456 15.2274 155.28 16.0217 155.28 16.9534Z" fill="#A7A7A7"/>
<path d="M174.116 34C173.605 34 173.139 33.958 172.719 33.874C172.299 33.7976 171.986 33.7136 171.78 33.622L172.604 30.8152C173.23 30.9832 173.788 31.0558 174.276 31.0329C174.765 31.01 175.196 30.8267 175.571 30.483C175.952 30.1393 176.288 29.578 176.578 28.799L177.002 27.6305L170.566 9.80488H174.231L178.686 23.4605H178.869L183.324 9.80488H187L179.751 29.7498C179.415 30.6663 178.987 31.4415 178.468 32.0754C177.949 32.7169 177.33 33.1981 176.613 33.5188C175.895 33.8396 175.063 34 174.116 34Z" fill="#A7A7A7"/>
<defs>
<clipPath id="clip0_2003_29828">
<rect width="47" height="30" fill="white" transform="translate(0 4)"/>
</clipPath>
</defs>
</svg>
