<svg width="466" height="88" viewBox="0 0 466 88" fill="none" xmlns="http://www.w3.org/2000/svg">
<mask id="mask0_2026_29410" style="mask-type:luminance" maskUnits="userSpaceOnUse" x="0" y="10" width="121" height="78">
<path d="M120.845 10.2846H0V87.4194H120.845V10.2846Z" fill="white"/>
</mask>
<g mask="url(#mask0_2026_29410)">
<path d="M69.7466 85.5168L59.5589 50.2518V37.713V10.2846H119.118V37.713H79.1506L97.9586 76.1128L69.7466 85.5168Z" fill="#CD0000"/>
<path d="M49.3711 85.5168L59.5588 50.2518V37.713V10.2846H6.86646e-05V37.713H39.967L21.1591 76.1128L49.3711 85.5168Z" fill="#F03800"/>
<path d="M59.4979 36.1456V10.2846H75.9549V36.1456H59.4979Z" fill="#F03800"/>
<path d="M43.0412 36.1456V10.2846H59.4982V36.1456H43.0412Z" fill="#FF641A"/>
</g>
<path d="M171.373 69.9973C167.581 69.9973 163.91 69.4213 160.358 68.2694C156.854 67.0695 154.095 65.5337 152.079 63.6619L154.743 58.0465C156.663 59.7743 159.11 61.1903 162.086 62.2941C165.11 63.35 168.205 63.8779 171.373 63.8779C175.549 63.8779 178.668 63.1819 180.732 61.7901C182.796 60.3503 183.828 58.4545 183.828 56.1027C183.828 54.3749 183.252 52.9831 182.1 51.9271C180.996 50.8233 179.604 49.9833 177.924 49.4074C176.292 48.8315 173.965 48.1835 170.941 47.4636C167.149 46.5516 164.078 45.6399 161.726 44.7279C159.422 43.8159 157.43 42.4241 155.751 40.5523C154.119 38.6324 153.303 36.0649 153.303 32.8491C153.303 30.1615 153.999 27.7377 155.391 25.5779C156.83 23.4181 158.99 21.6903 161.87 20.3944C164.75 19.0986 168.325 18.4506 172.597 18.4506C175.572 18.4506 178.5 18.8346 181.38 19.6025C184.26 20.3704 186.731 21.4743 188.795 22.9142L186.419 28.6736C184.308 27.3296 182.052 26.3217 179.652 25.6499C177.252 24.93 174.901 24.57 172.597 24.57C168.517 24.57 165.446 25.3139 163.382 26.8018C161.366 28.2897 160.358 30.2093 160.358 32.5612C160.358 34.289 160.934 35.7049 162.086 36.8087C163.238 37.8647 164.654 38.7044 166.333 39.3285C168.061 39.9044 170.389 40.5284 173.317 41.2003C177.108 42.1123 180.156 43.024 182.46 43.936C184.764 44.848 186.731 46.2397 188.363 48.1115C190.043 49.9833 190.883 52.5031 190.883 55.6708C190.883 58.3106 190.163 60.7341 188.723 62.942C187.283 65.1018 185.1 66.8296 182.172 68.1255C179.244 69.3732 175.644 69.9973 171.373 69.9973ZM224.006 30.9053C228.854 30.9053 232.693 32.3213 235.525 35.1529C238.405 37.9367 239.845 42.0403 239.845 47.4636V69.4213H232.933V48.2555C232.933 44.56 232.045 41.7762 230.27 39.9044C228.494 38.0326 225.95 37.0967 222.638 37.0967C218.895 37.0967 215.943 38.2005 213.783 40.4083C211.623 42.5681 210.544 45.6877 210.544 49.7674V69.4213H203.632V16.0029H210.544V36.6647C211.983 34.841 213.855 33.4251 216.159 32.4172C218.511 31.4093 221.126 30.9053 224.006 30.9053ZM255.875 31.2653H262.785V69.4213H255.875V31.2653ZM259.33 23.9221C257.988 23.9221 256.859 23.4901 255.947 22.6262C255.083 21.7623 254.651 20.7064 254.651 19.4585C254.651 18.2107 255.083 17.1548 255.947 16.2909C256.859 15.3789 257.988 14.923 259.33 14.923C260.674 14.923 261.778 15.355 262.641 16.2189C263.554 17.0348 264.009 18.0667 264.009 19.3145C264.009 20.6104 263.554 21.7143 262.641 22.6262C261.778 23.4901 260.674 23.9221 259.33 23.9221ZM299.597 30.9053C304.443 30.9053 308.282 32.3213 311.116 35.1529C313.995 37.9367 315.435 42.0403 315.435 47.4636V69.4213H308.524V48.2555C308.524 44.56 307.634 41.7762 305.86 39.9044C304.083 38.0326 301.541 37.0967 298.229 37.0967C294.485 37.0967 291.534 38.2005 289.374 40.4083C287.214 42.5681 286.134 45.6877 286.134 49.7674V69.4213H279.223V16.0029H286.134V36.6647C287.574 34.841 289.446 33.4251 291.75 32.4172C294.1 31.4093 296.717 30.9053 299.597 30.9053ZM345.358 30.9053C350.637 30.9053 354.668 32.2012 357.453 34.7929C360.284 37.3847 361.701 41.2483 361.701 46.3837V69.4213H355.149V64.3818C353.997 66.1577 352.342 67.5256 350.182 68.4854C348.071 69.3974 345.551 69.8533 342.623 69.8533C338.352 69.8533 334.919 68.8215 332.328 66.7576C329.785 64.6937 328.512 61.9822 328.512 58.6224C328.512 55.2627 329.736 52.5751 332.184 50.5593C334.631 48.4954 338.519 47.4636 343.846 47.4636H354.789V46.0958C354.789 43.1201 353.925 40.8403 352.198 39.2565C350.47 37.6726 347.927 36.8807 344.566 36.8807C342.311 36.8807 340.103 37.2646 337.943 38.0326C335.783 38.7525 333.96 39.7365 332.472 40.9843L329.592 35.8008C331.559 34.217 333.911 33.017 336.647 32.2012C339.383 31.3373 342.286 30.9053 345.358 30.9053ZM343.774 64.5258C346.415 64.5258 348.693 63.9499 350.614 62.798C352.534 61.598 353.925 59.9183 354.789 57.7585V52.4311H344.134C338.28 52.4311 335.351 54.3988 335.351 58.3345C335.351 60.2544 336.094 61.7662 337.583 62.87C339.072 63.9738 341.134 64.5258 343.774 64.5258ZM398.106 30.9053C402.952 30.9053 406.791 32.3213 409.624 35.1529C412.504 37.9367 413.944 42.0403 413.944 47.4636V69.4213H407.033V48.2555C407.033 44.56 406.143 41.7762 404.369 39.9044C402.592 38.0326 400.049 37.0967 396.738 37.0967C392.994 37.0967 390.042 38.2005 387.883 40.4083C385.723 42.5681 384.643 45.6877 384.643 49.7674V69.4213H377.732V31.2653H384.355V37.0247C385.746 35.057 387.618 33.5451 389.97 32.4892C392.369 31.4332 395.082 30.9053 398.106 30.9053ZM463.035 31.2653L444.533 73.2369C442.9 77.1245 440.98 79.8602 438.774 81.4441C436.614 83.0279 433.996 83.8198 430.926 83.8198C429.055 83.8198 427.229 83.5079 425.455 82.8839C423.727 82.308 422.287 81.4441 421.135 80.2922L424.087 75.1087C426.054 76.9805 428.335 77.9164 430.926 77.9164C432.605 77.9164 433.996 77.4606 435.102 76.5486C436.254 75.6847 437.285 74.1728 438.198 72.013L439.422 69.3493L422.575 31.2653H429.775L443.093 61.7901L456.268 31.2653H463.035Z" fill="#182F45"/>
</svg>
