<svg width="188" height="82" viewBox="0 0 188 82" fill="none" xmlns="http://www.w3.org/2000/svg">
<path d="M73.8276 32.8188H66.5074V29.3584H85.2509V32.8188H77.9307V51.3789H73.8276V32.8188Z" fill="#A7A7A7"/>
<path d="M113.207 34.5806L106.991 51.3789H103.205L98.8504 39.8028L94.4324 51.3789H90.6466L84.4614 34.5806H88.1861L92.6347 46.9743L97.2736 34.5806H100.587L105.132 47.0376L109.707 34.5806H113.207Z" fill="#A7A7A7"/>
<path d="M116.111 31.1366C115.627 30.6867 115.385 30.1245 115.385 29.4521C115.385 28.782 115.627 28.2197 116.111 27.7699C116.595 27.3201 117.195 27.0928 117.911 27.0928C118.626 27.0928 119.225 27.3083 119.709 27.7371C120.193 28.1682 120.435 28.707 120.435 29.3583C120.435 30.0518 120.2 30.6329 119.725 31.1038C119.251 31.577 118.647 31.8113 117.911 31.8113C117.195 31.8113 116.595 31.5864 116.111 31.1366ZM115.921 34.5806H119.866V51.3789H115.921V34.5806Z" fill="#A7A7A7"/>
<path d="M134.791 34.3908V38.1347C134.455 38.0714 134.15 38.041 133.875 38.041C132.34 38.041 131.139 38.4861 130.277 39.3788C129.415 40.2714 128.982 41.5553 128.982 43.2328V51.3812H125.036V34.5829H128.792V37.0359C129.931 35.2717 131.929 34.3908 134.791 34.3908Z" fill="#A7A7A7"/>
<path d="M153.756 44.2378H140.535C140.765 45.4749 141.371 46.4565 142.349 47.1805C143.329 47.9044 144.541 48.2652 145.994 48.2652C147.846 48.2652 149.371 47.6561 150.569 46.4401L152.684 48.8626C151.927 49.7646 150.969 50.4464 149.813 50.9079C148.656 51.3695 147.352 51.6014 145.9 51.6014C144.048 51.6014 142.419 51.2336 141.009 50.5003C139.599 49.767 138.511 48.7431 137.743 47.4335C136.974 46.1238 136.591 44.6385 136.591 42.9821C136.591 41.3467 136.965 39.8731 137.712 38.5611C138.46 37.2514 139.496 36.2276 140.821 35.4943C142.147 34.761 143.639 34.3931 145.303 34.3931C146.943 34.3931 148.412 34.7539 149.704 35.4779C150.999 36.2018 152.01 37.2186 152.734 38.5306C153.46 39.8403 153.824 41.3561 153.824 43.0758C153.819 43.3475 153.796 43.7341 153.756 44.2378ZM142.095 38.6548C141.223 39.3998 140.69 40.3909 140.502 41.6279H150.064C149.895 40.4119 149.38 39.4256 148.518 38.6712C147.655 37.9168 146.581 37.5396 145.298 37.5396C144.036 37.5373 142.969 37.9098 142.095 38.6548Z" fill="#A7A7A7"/>
<path d="M167.86 51.3789L163.536 45.5592L159.182 51.3789H154.827L161.391 42.8532L155.112 34.5782H159.499L163.633 40.0839L167.766 34.5782H172.027L165.715 42.7899L172.311 51.3789H167.86Z" fill="#A7A7A7"/>
<path d="M23.6316 24.6961H19.9656V21.1466H18.8963V24.6961H15.2303V42.7993H18.8963V46.3487H19.9656V42.7993H23.6316V24.6961Z" fill="#A7A7A7"/>
<path d="M34.4627 28.379H30.7968V24.8296H29.7252V28.379H26.0592V61.9709H29.7252V65.5203H30.7968V61.9709H34.4627V28.379Z" fill="#A7A7A7"/>
<path d="M45.2939 22.1447H41.6279V18.5953H40.5563V22.1447H36.8903V55.7342H40.5563V59.286H41.6279V55.7342H45.2939V22.1447Z" fill="#A7A7A7"/>
<path d="M56.125 19.1037H52.459V15.5519H51.3874V19.1037H47.7215V41.574H51.3874V45.1234H52.459V41.574H56.125V19.1037Z" fill="#A7A7A7"/>
</svg>
