<svg width="467" height="151" viewBox="0 0 467 151" fill="none" xmlns="http://www.w3.org/2000/svg">
<path d="M173.816 53.122H152.315V42.9841H207.368V53.122H185.867V107.498H173.816V53.122V53.122Z" fill="#182432"/>
<path d="M289.478 58.2837L271.221 107.498H260.101L247.311 73.5833L234.335 107.498H223.215L205.049 58.2837H215.989L229.055 94.5937L242.68 58.2837H252.412L265.761 94.779L279.2 58.2837H289.478V58.2837Z" fill="#182432"/>
<path d="M298.009 48.1938C296.587 46.8759 295.876 45.2286 295.876 43.2586C295.876 41.2955 296.587 39.6482 298.009 38.3303C299.431 37.0125 301.191 36.3467 303.296 36.3467C305.394 36.3467 307.154 36.9782 308.576 38.2342C309.998 39.4972 310.709 41.0759 310.709 42.9841C310.709 45.0158 310.019 46.718 308.625 48.0977C307.23 49.4842 305.456 50.1706 303.296 50.1706C301.191 50.1706 299.431 49.5116 298.009 48.1938ZM297.45 58.2837H309.039V107.498H297.45V58.2837Z" fill="#182432"/>
<path d="M352.875 57.7277V68.6962C351.888 68.5109 350.991 68.4217 350.183 68.4217C345.676 68.4217 342.149 69.7258 339.616 72.341C337.083 74.9561 335.813 78.7175 335.813 83.6321V107.505H324.224V58.2906H335.254V65.4771C338.601 60.3086 344.468 57.7277 352.875 57.7277Z" fill="#182432"/>
<path d="M408.577 86.5766H369.745C370.421 90.2008 372.202 93.0767 375.073 95.1977C377.951 97.3186 381.513 98.3757 385.779 98.3757C391.218 98.3757 395.697 96.5911 399.217 93.0287L405.429 100.126C403.207 102.769 400.391 104.766 396.995 106.118C393.599 107.47 389.768 108.15 385.503 108.15C380.063 108.15 375.28 107.072 371.139 104.924C366.997 102.775 363.802 99.7759 361.545 95.939C359.288 92.1021 358.162 87.7504 358.162 82.8976C358.162 78.1066 359.26 73.7892 361.455 69.9454C363.65 66.1085 366.694 63.109 370.587 60.9606C374.48 58.8122 378.863 57.7346 383.749 57.7346C388.567 57.7346 392.881 58.7916 396.677 60.9125C400.481 63.0335 403.449 66.0124 405.574 69.8562C407.707 73.6931 408.777 78.134 408.777 83.1721C408.763 83.9684 408.694 85.1009 408.577 86.5766ZM374.328 70.22C371.767 72.4027 370.2 75.3061 369.648 78.9303H397.733C397.236 75.3679 395.725 72.4782 393.192 70.268C390.659 68.0578 387.504 66.9528 383.736 66.9528C380.029 66.9459 376.895 68.0373 374.328 70.22Z" fill="#182432"/>
<path d="M450.005 107.498L437.304 90.4479L424.514 107.498H411.724L431.003 82.5201L412.56 58.2768H425.446L437.587 74.4069L449.728 58.2768H462.242L443.703 82.3347L463.078 107.498H450.005V107.498Z" fill="#182432"/>
<path d="M26.3822 29.3249H15.6146V18.9261H12.4741V29.3249H1.70648V82.3622H12.4741V92.761H15.6146V82.3622H26.3822V29.3249Z" fill="#01CAF2"/>
<path d="M58.195 40.1149H47.4274V29.7161H44.2799V40.1149H33.5123V138.529H44.2799V148.928H47.4274V138.529H58.195V40.1149Z" fill="#6023D3"/>
<path d="M90.0077 21.8501H79.2401V11.4514H76.0927V21.8501H65.3251V120.258H76.0927V130.663H79.2401V120.258H90.0077V21.8501Z" fill="#FE449E"/>
<path d="M121.82 12.9408H111.053V2.53516H107.905V12.9408H97.1378V78.7724H107.905V89.1712H111.053V78.7724H121.82V12.9408Z" fill="#FF8344"/>
</svg>
